<?xml version="1.0" encoding="utf-8"?>
<!-- Generator: Adobe Illustrator 16.0.0, SVG Export Plug-In . SVG Version: 6.00 Build 0)  -->
<!DOCTYPE svg PUBLIC "-//W3C//DTD SVG 1.1//EN" "http://www.w3.org/Graphics/SVG/1.1/DTD/svg11.dtd">
<svg version="1.1" id="Layer_1" xmlns="http://www.w3.org/2000/svg" xmlns:xlink="http://www.w3.org/1999/xlink" x="0px" y="0px"
	 width="64px" height="64px" viewBox="0 0 64 64" enable-background="new 0 0 64 64" xml:space="preserve">
<g>
	<g>
		<path fill="#FFFFFF" d="M3.397,21.435c-0.573-0.38-1.505-0.38-2.079,0.001c-0.573,0.381-0.573,1,0,1.38
			c0.575,0.382,1.505,0.381,2.079,0C3.971,22.435,3.973,21.817,3.397,21.435z"/>
		<polygon fill="#FFFFFF" points="34.022,41.777 31.943,43.159 1.318,22.816 3.397,21.435 		"/>
	</g>
	<g>
		<path fill="#FFFFFF" d="M62.681,22.816c0.572-0.381,0.573-0.999-0.002-1.381c-0.572-0.38-1.506-0.38-2.078,0
			c-0.575,0.382-0.574,1,0,1.381C61.175,23.198,62.104,23.198,62.681,22.816z"/>
		<polygon fill="#FFFFFF" points="32.055,43.159 29.976,41.777 60.601,21.435 62.681,22.816 		"/>
	</g>
</g>
</svg>
