<?xml version="1.0" encoding="utf-8"?>
<!-- Generator: Adobe Illustrator 16.0.0, SVG Export Plug-In . SVG Version: 6.00 Build 0)  -->
<!DOCTYPE svg PUBLIC "-//W3C//DTD SVG 1.1//EN" "http://www.w3.org/Graphics/SVG/1.1/DTD/svg11.dtd">
<svg version="1.1" id="Layer_1" xmlns="http://www.w3.org/2000/svg" xmlns:xlink="http://www.w3.org/1999/xlink" x="0px" y="0px"
	 width="200px" height="200px" viewBox="0 0 200 200" enable-background="new 0 0 200 200" xml:space="preserve">
<g>
	<g>
		<rect x="2.917" y="2.916" fill="#F7941E" width="193.667" height="193.668"/>
		<path fill="#AA6027" d="M193.667,5.833v187.834H5.833V5.833H193.667 M199.5,0H0v199.5h199.5V0L199.5,0z"/>
	</g>
	<g>
		<path fill="#92521E" d="M96.165,112.912H79.258l-4.201,16.396H62.249l20.8-72.239h10.144l20.903,72.239h-13.525L96.165,112.912z
			 M82.025,102.461h11.886l-4.1-16.702l-1.639-11.271h-0.41l-1.742,11.374L82.025,102.461z"/>
		<path fill="#92521E" d="M117.989,63.628c0-2.051,0.648-3.742,1.948-5.073c1.296-1.331,3.141-1.998,5.533-1.998
			c2.39,0,4.304,0.65,5.738,1.947c1.434,1.298,2.152,3.006,2.152,5.124s-0.718,3.791-2.152,5.02
			c-1.434,1.229-3.348,1.845-5.738,1.845c-2.392,0-4.236-0.632-5.533-1.896C118.637,67.333,117.989,65.677,117.989,63.628z
			 M119.321,78.074h12.193v51.234h-12.193V78.074z"/>
	</g>
	<g>
		<path fill="#92521E" d="M24.224,182.037h-4.696l-1.166,4.555h-3.558l5.777-20.066H23.4l5.805,20.066h-3.756L24.224,182.037z
			 M20.297,179.134h3.302l-1.138-4.639l-0.456-3.132h-0.114l-0.483,3.159L20.297,179.134z"/>
		<path fill="#92521E" d="M40.59,181.583c0,0.796,0.01,1.593,0.028,2.39c0.02,0.797,0.096,1.679,0.228,2.647h-2.391L38,184.97
			h-0.114c-0.645,1.327-1.773,1.991-3.387,1.991c-1.443,0-2.575-0.568-3.401-1.708c-0.826-1.139-1.238-2.988-1.238-5.55
			c0-2.504,0.446-4.406,1.338-5.705c0.891-1.301,2.22-1.951,3.984-1.951c0.454,0,0.834,0.028,1.138,0.086
			c0.303,0.056,0.598,0.152,0.883,0.284v-5.75h3.387V181.583z M35.297,183.859c0.511,0,0.92-0.128,1.223-0.385
			c0.305-0.256,0.531-0.63,0.684-1.124v-6.718c-0.191-0.171-0.403-0.293-0.641-0.369c-0.238-0.075-0.546-0.114-0.926-0.114
			c-0.758,0-1.327,0.342-1.706,1.024c-0.381,0.684-0.57,1.898-0.57,3.645c0,1.309,0.157,2.31,0.47,3.001
			C34.144,183.513,34.633,183.859,35.297,183.859z"/>
		<path fill="#92521E" d="M42.525,179.476c0-2.524,0.493-4.401,1.48-5.635s2.363-1.851,4.127-1.851c1.897,0,3.311,0.625,4.24,1.877
			c0.93,1.255,1.396,3.124,1.396,5.608c0,2.544-0.495,4.427-1.48,5.649c-0.987,1.226-2.372,1.836-4.155,1.836
			C44.395,186.961,42.525,184.466,42.525,179.476z M46.026,179.476c0,1.424,0.162,2.523,0.483,3.303
			c0.323,0.778,0.864,1.165,1.624,1.165c0.72,0,1.257-0.336,1.608-1.01c0.35-0.673,0.527-1.826,0.527-3.458
			c0-1.46-0.163-2.571-0.485-3.33c-0.322-0.759-0.873-1.139-1.649-1.139c-0.666,0-1.182,0.338-1.553,1.011
			C46.211,176.69,46.026,177.845,46.026,179.476z"/>
		<path fill="#92521E" d="M55.703,166.667h3.387v6.603h0.085c0.684-0.833,1.661-1.252,2.933-1.252c1.347,0,2.395,0.561,3.145,1.681
			c0.749,1.118,1.125,2.921,1.125,5.407c0,2.695-0.533,4.673-1.594,5.936c-1.063,1.262-2.516,1.892-4.356,1.892
			c-1.006,0-1.93-0.096-2.773-0.284c-0.845-0.189-1.496-0.399-1.95-0.627V166.667z M59.09,183.517
			c0.398,0.211,0.92,0.313,1.565,0.313c0.721,0,1.272-0.347,1.651-1.038c0.379-0.692,0.57-1.854,0.57-3.487
			c0-1.441-0.153-2.5-0.456-3.172c-0.304-0.675-0.778-1.011-1.423-1.011c-0.949,0-1.584,0.493-1.907,1.479V183.517z"/>
		<path fill="#92521E" d="M77.933,185.538c-0.476,0.419-1.121,0.759-1.937,1.025c-0.815,0.266-1.669,0.397-2.561,0.397
			c-0.986,0-1.836-0.171-2.548-0.511c-0.711-0.343-1.295-0.836-1.75-1.48c-0.456-0.646-0.793-1.429-1.01-2.349
			c-0.22-0.92-0.328-1.969-0.328-3.146c0-2.562,0.507-4.454,1.522-5.679c1.015-1.224,2.424-1.836,4.227-1.836
			c0.607,0,1.195,0.09,1.765,0.271c0.568,0.18,1.076,0.482,1.521,0.909c0.447,0.427,0.808,0.997,1.083,1.709
			c0.274,0.711,0.413,1.607,0.413,2.688c0,0.419-0.025,0.865-0.073,1.339s-0.118,0.986-0.212,1.537H71.13
			c0.038,1.178,0.285,2.078,0.741,2.703c0.454,0.627,1.185,0.94,2.191,0.94c0.605,0,1.162-0.095,1.665-0.285
			c0.502-0.189,0.887-0.389,1.152-0.598L77.933,185.538z M73.493,174.864c-0.722,0-1.262,0.291-1.622,0.868
			c-0.362,0.58-0.57,1.391-0.627,2.434h3.928c0.057-1.08-0.057-1.902-0.34-2.463C74.546,175.146,74.1,174.864,73.493,174.864z"/>
		<path fill="#92521E" d="M86.699,166.667h3.585v19.925h-3.585V166.667z"/>
		<path fill="#92521E" d="M96.546,181.979c0,0.665,0.065,1.139,0.199,1.424c0.132,0.284,0.352,0.427,0.655,0.427
			c0.171,0,0.346-0.019,0.526-0.057c0.181-0.038,0.384-0.104,0.612-0.199l0.314,2.732c-0.228,0.152-0.618,0.294-1.167,0.427
			c-0.551,0.133-1.111,0.199-1.679,0.199c-0.949,0-1.662-0.237-2.135-0.711c-0.476-0.475-0.712-1.281-0.712-2.42v-17.135h3.387
			V181.979z"/>
		<path fill="#92521E" d="M103.464,181.979c0,0.665,0.065,1.139,0.199,1.424c0.131,0.284,0.351,0.427,0.654,0.427
			c0.171,0,0.346-0.019,0.527-0.057c0.181-0.038,0.384-0.104,0.611-0.199l0.314,2.732c-0.228,0.152-0.617,0.294-1.167,0.427
			c-0.551,0.133-1.111,0.199-1.679,0.199c-0.949,0-1.661-0.237-2.135-0.711c-0.475-0.475-0.711-1.281-0.711-2.42v-17.135h3.387
			V181.979z"/>
		<path fill="#92521E" d="M110.21,172.36v8.511c0,1.119,0.104,1.897,0.312,2.334c0.208,0.436,0.588,0.654,1.138,0.654
			c0.531,0,0.977-0.194,1.338-0.584c0.36-0.389,0.616-0.858,0.769-1.409v-9.506h3.387v9.904c0,0.778,0.028,1.542,0.085,2.292
			s0.161,1.427,0.314,2.035h-2.563l-0.597-1.937h-0.085c-0.361,0.664-0.849,1.215-1.466,1.651c-0.617,0.436-1.38,0.654-2.291,0.654
			c-0.59,0-1.11-0.08-1.566-0.241c-0.455-0.161-0.844-0.44-1.167-0.84c-0.324-0.398-0.57-0.943-0.74-1.638
			c-0.171-0.691-0.256-1.568-0.256-2.632v-9.25H110.21z"/>
		<path fill="#92521E" d="M124.412,182.806c0-0.399-0.128-0.735-0.384-1.01c-0.257-0.275-0.584-0.531-0.982-0.77
			c-0.397-0.236-0.82-0.478-1.266-0.726c-0.446-0.245-0.869-0.55-1.266-0.909c-0.399-0.361-0.727-0.799-0.983-1.311
			c-0.255-0.513-0.385-1.156-0.385-1.936c0-1.329,0.361-2.353,1.083-3.074c0.72-0.722,1.783-1.081,3.187-1.081
			c0.835,0,1.623,0.09,2.362,0.27c0.741,0.181,1.329,0.404,1.766,0.67l-0.796,2.619c-0.362-0.152-0.798-0.299-1.31-0.442
			c-0.513-0.142-1.016-0.213-1.509-0.213c-0.93,0-1.395,0.39-1.395,1.166c0,0.361,0.128,0.66,0.384,0.898
			c0.256,0.236,0.584,0.468,0.982,0.696c0.397,0.228,0.82,0.465,1.266,0.711c0.446,0.247,0.869,0.556,1.266,0.926
			c0.399,0.37,0.727,0.821,0.982,1.353c0.256,0.53,0.384,1.186,0.384,1.964c0,1.31-0.397,2.362-1.195,3.159
			c-0.797,0.797-1.983,1.194-3.558,1.194c-0.779,0-1.542-0.095-2.291-0.285c-0.75-0.188-1.353-0.435-1.808-0.739l0.939-2.731
			c0.399,0.228,0.859,0.427,1.38,0.597c0.522,0.171,1.067,0.257,1.637,0.257c0.436,0,0.796-0.1,1.081-0.299
			C124.271,183.561,124.412,183.242,124.412,182.806z"/>
		<path fill="#92521E" d="M128.482,172.36h1.565v-2.676l3.387-1.054v3.729h2.762v3.018h-2.762v6.205
			c0,0.815,0.081,1.394,0.243,1.735c0.16,0.342,0.45,0.512,0.867,0.512c0.285,0,0.541-0.028,0.769-0.085
			c0.228-0.058,0.474-0.142,0.741-0.255l0.427,2.703c-0.418,0.209-0.902,0.385-1.453,0.526c-0.55,0.143-1.128,0.213-1.735,0.213
			c-1.082,0-1.893-0.312-2.434-0.938c-0.541-0.627-0.812-1.679-0.812-3.159v-7.457h-1.565V172.36z"/>
		<path fill="#92521E" d="M144.592,175.719c-0.456-0.17-0.874-0.257-1.253-0.257c-0.513,0-0.953,0.143-1.324,0.428
			c-0.37,0.284-0.621,0.683-0.753,1.196v9.506h-3.387V172.36h2.589l0.398,1.708h0.114c0.246-0.627,0.603-1.115,1.067-1.467
			c0.464-0.351,1.001-0.526,1.608-0.526c0.456,0,0.901,0.096,1.338,0.285L144.592,175.719z"/>
		<path fill="#92521E" d="M146.243,173.213c0.57-0.341,1.281-0.615,2.135-0.825c0.855-0.208,1.822-0.312,2.903-0.312
			c1.612,0,2.736,0.418,3.373,1.252c0.635,0.835,0.953,2.021,0.953,3.558c0,0.894-0.023,1.771-0.07,2.635
			c-0.047,0.862-0.081,1.708-0.1,2.532c-0.02,0.825-0.004,1.622,0.043,2.392c0.047,0.769,0.175,1.493,0.384,2.177h-2.76
			l-0.541-1.736h-0.114c-0.304,0.551-0.73,1.006-1.281,1.365c-0.551,0.36-1.243,0.541-2.078,0.541c-1.12,0-2.002-0.373-2.647-1.124
			c-0.645-0.749-0.967-1.749-0.967-3.003c0-1.708,0.607-2.922,1.822-3.644c1.214-0.719,2.856-1.024,4.924-0.909
			c0.095-1.102,0.024-1.897-0.214-2.392c-0.238-0.493-0.745-0.74-1.521-0.74c-0.57,0-1.158,0.066-1.765,0.2
			c-0.607,0.132-1.148,0.322-1.622,0.568L146.243,173.213z M150.313,183.887c0.512,0,0.93-0.127,1.252-0.383
			c0.323-0.257,0.559-0.536,0.712-0.841v-2.362c-0.437-0.057-0.855-0.066-1.252-0.029c-0.399,0.04-0.751,0.124-1.054,0.257
			c-0.305,0.133-0.546,0.327-0.726,0.584c-0.181,0.257-0.271,0.583-0.271,0.981c0,0.59,0.119,1.034,0.356,1.339
			C149.569,183.735,149.895,183.887,150.313,183.887z"/>
		<path fill="#92521E" d="M156.86,172.36h1.565v-2.676l3.387-1.054v3.729h2.761v3.018h-2.761v6.205c0,0.815,0.081,1.394,0.243,1.735
			c0.16,0.342,0.45,0.512,0.867,0.512c0.285,0,0.541-0.028,0.769-0.085c0.228-0.058,0.474-0.142,0.741-0.255l0.427,2.703
			c-0.418,0.209-0.902,0.385-1.452,0.526c-0.551,0.143-1.129,0.213-1.736,0.213c-1.081,0-1.893-0.312-2.434-0.938
			c-0.541-0.627-0.811-1.679-0.811-3.159v-7.457h-1.565V172.36z"/>
		<path fill="#92521E" d="M165.739,179.476c0-2.524,0.493-4.401,1.48-5.635s2.363-1.851,4.127-1.851c1.897,0,3.311,0.625,4.24,1.877
			c0.93,1.255,1.396,3.124,1.396,5.608c0,2.544-0.495,4.427-1.481,5.649c-0.986,1.226-2.372,1.836-4.155,1.836
			C167.608,186.961,165.739,184.466,165.739,179.476z M169.24,179.476c0,1.424,0.162,2.523,0.484,3.303
			c0.322,0.778,0.863,1.165,1.623,1.165c0.72,0,1.257-0.336,1.608-1.01c0.35-0.673,0.527-1.826,0.527-3.458
			c0-1.46-0.163-2.571-0.485-3.33c-0.322-0.759-0.873-1.139-1.649-1.139c-0.666,0-1.181,0.338-1.552,1.011
			C169.425,176.69,169.24,177.845,169.24,179.476z"/>
		<path fill="#92521E" d="M185.634,175.719c-0.456-0.17-0.873-0.257-1.252-0.257c-0.513,0-0.953,0.143-1.324,0.428
			c-0.37,0.284-0.622,0.683-0.754,1.196v9.506h-3.387V172.36h2.589l0.399,1.708h0.114c0.246-0.627,0.602-1.115,1.067-1.467
			c0.464-0.351,1.001-0.526,1.608-0.526c0.455,0,0.9,0.096,1.338,0.285L185.634,175.719z"/>
	</g>
</g>
</svg>
