<?xml version="1.0" encoding="utf-8"?>
<!-- Generator: Adobe Illustrator 16.0.0, SVG Export Plug-In . SVG Version: 6.00 Build 0)  -->
<!DOCTYPE svg PUBLIC "-//W3C//DTD SVG 1.1//EN" "http://www.w3.org/Graphics/SVG/1.1/DTD/svg11.dtd">
<svg version="1.1" id="Layer_1" xmlns="http://www.w3.org/2000/svg" xmlns:xlink="http://www.w3.org/1999/xlink" x="0px" y="0px"
	 width="200px" height="200px" viewBox="0 0 200 200" enable-background="new 0 0 200 200" xml:space="preserve">
<g>
	<g>
		<rect x="2.917" y="2.917" fill="#F5846F" width="193.667" height="193.667"/>
		<path fill="#B32C39" d="M193.667,5.833v187.834H5.833V5.833H193.667 M199.5,0H0v199.5h199.5V0L199.5,0z"/>
	</g>
	<g>
		<path fill="#B32C39" d="M82.986,115.075c-1.495,1.195-3.288,2.093-5.379,2.689c-2.093,0.597-4.185,0.896-6.276,0.896
			c-3.049,0-5.604-0.554-7.667-1.659c-2.062-1.104-3.75-2.688-5.064-4.75c-1.316-2.063-2.257-4.543-2.825-7.443
			c-0.568-2.898-0.851-6.141-0.851-9.728c0-7.829,1.403-13.718,4.213-17.663c2.809-3.945,6.934-5.917,12.373-5.917
			c2.69,0,4.887,0.239,6.59,0.717c1.704,0.479,3.213,1.076,4.528,1.793l-2.51,8.876c-1.076-0.538-2.107-0.942-3.093-1.21
			c-0.986-0.269-2.168-0.404-3.541-0.404c-2.511,0-4.394,1.091-5.649,3.272c-1.255,2.184-1.883,5.694-1.883,10.535
			c0,4.065,0.642,7.383,1.928,9.953c1.284,2.57,3.331,3.855,6.142,3.855c1.493,0,2.764-0.195,3.81-0.584
			c1.045-0.389,2.018-0.881,2.915-1.479L82.986,115.075z"/>
		<path fill="#B32C39" d="M102.979,105.571c0-1.256-0.404-2.315-1.211-3.184c-0.807-0.864-1.838-1.672-3.093-2.42
			c-1.255-0.747-2.586-1.508-3.99-2.286c-1.405-0.776-2.735-1.733-3.99-2.869c-1.255-1.135-2.286-2.511-3.094-4.125
			c-0.807-1.615-1.21-3.646-1.21-6.097c0-4.183,1.135-7.411,3.407-9.683c2.27-2.271,5.618-3.407,10.042-3.407
			c2.629,0,5.111,0.285,7.441,0.851c2.332,0.57,4.183,1.271,5.559,2.107l-2.511,8.25c-1.136-0.479-2.51-0.941-4.124-1.39
			c-1.614-0.449-3.199-0.673-4.752-0.673c-2.93,0-4.393,1.226-4.393,3.676c0,1.136,0.404,2.078,1.21,2.824
			c0.808,0.749,1.838,1.479,3.094,2.196c1.255,0.718,2.584,1.466,3.989,2.242c1.404,0.778,2.734,1.749,3.99,2.914
			c1.254,1.166,2.286,2.586,3.093,4.258c0.807,1.674,1.21,3.737,1.21,6.187c0,4.125-1.255,7.44-3.766,9.952
			c-2.511,2.511-6.247,3.766-11.207,3.766c-2.452,0-4.857-0.3-7.218-0.896c-2.361-0.597-4.258-1.375-5.693-2.33l2.958-8.608
			c1.256,0.717,2.704,1.346,4.349,1.884c1.643,0.537,3.362,0.806,5.156,0.806c1.374,0,2.51-0.314,3.406-0.94
			C102.531,107.946,102.979,106.946,102.979,105.571z"/>
		<path fill="#B32C39" d="M134.358,105.571c0-1.256-0.403-2.315-1.21-3.184c-0.807-0.864-1.838-1.672-3.093-2.42
			c-1.255-0.747-2.586-1.508-3.99-2.286c-1.405-0.776-2.734-1.733-3.989-2.869c-1.255-1.135-2.287-2.511-3.094-4.125
			c-0.806-1.615-1.209-3.646-1.209-6.097c0-4.183,1.135-7.411,3.407-9.683c2.271-2.271,5.618-3.407,10.042-3.407
			c2.63,0,5.111,0.285,7.442,0.851c2.332,0.57,4.183,1.271,5.559,2.107l-2.51,8.25c-1.137-0.479-2.511-0.941-4.124-1.39
			c-1.615-0.449-3.199-0.673-4.752-0.673c-2.929,0-4.394,1.226-4.394,3.676c0,1.136,0.404,2.078,1.211,2.824
			c0.808,0.749,1.838,1.479,3.094,2.196c1.255,0.718,2.584,1.466,3.989,2.242c1.404,0.778,2.735,1.749,3.99,2.914
			c1.254,1.166,2.286,2.586,3.093,4.258c0.807,1.674,1.211,3.737,1.211,6.187c0,4.125-1.255,7.44-3.766,9.952
			c-2.51,2.511-6.246,3.766-11.207,3.766c-2.452,0-4.857-0.3-7.219-0.896c-2.361-0.597-4.258-1.375-5.692-2.33l2.959-8.608
			c1.255,0.717,2.704,1.346,4.349,1.884c1.643,0.537,3.362,0.806,5.155,0.806c1.374,0,2.51-0.314,3.407-0.94
			C133.91,107.946,134.358,106.946,134.358,105.571z"/>
	</g>
</g>
</svg>
