<?xml version="1.0" encoding="utf-8"?>
<!-- Generator: Adobe Illustrator 16.0.0, SVG Export Plug-In . SVG Version: 6.00 Build 0)  -->
<!DOCTYPE svg PUBLIC "-//W3C//DTD SVG 1.1//EN" "http://www.w3.org/Graphics/SVG/1.1/DTD/svg11.dtd">
<svg version="1.1" id="Layer_1" xmlns="http://www.w3.org/2000/svg" xmlns:xlink="http://www.w3.org/1999/xlink" x="0px" y="0px"
	 width="64px" height="64px" viewBox="0 0 64 64" enable-background="new 0 0 64 64" xml:space="preserve">
<g id="github" display="none">
	<path display="inline" fill="#FFFFFF" d="M31.998,0.416c-17.538,0-31.76,14.22-31.76,31.763c0,14.035,9.1,25.939,21.723,30.139
		c1.588,0.289,2.168-0.688,2.168-1.53c0-0.754-0.028-2.754-0.043-5.404c-8.835,1.921-10.7-4.258-10.7-4.258
		C11.942,47.458,9.86,46.48,9.86,46.48c-2.884-1.97,0.218-1.931,0.218-1.931c3.188,0.226,4.865,3.275,4.865,3.275
		c2.833,4.852,7.434,3.448,9.244,2.639c0.288-2.053,1.109-3.455,2.016-4.246c-7.053-0.805-14.468-3.526-14.468-15.7
		c0-3.467,1.238-6.303,3.27-8.523c-0.327-0.804-1.417-4.033,0.312-8.406c0,0,2.667-0.854,8.734,3.256
		c2.533-0.705,5.25-1.057,7.952-1.069c2.698,0.012,5.413,0.364,7.952,1.069c6.064-4.11,8.727-3.256,8.727-3.256
		c1.732,4.373,0.643,7.602,0.315,8.406c2.034,2.22,3.265,5.056,3.265,8.523c0,12.205-7.427,14.886-14.503,15.671
		c1.142,0.982,2.156,2.922,2.156,5.886c0,4.245-0.038,7.67-0.038,8.713c0,0.851,0.571,1.836,2.184,1.526
		c12.611-4.209,21.703-16.104,21.703-30.135C63.762,14.636,49.541,0.416,31.998,0.416z"/>
</g>
<g id="twitter" display="none">
	<path display="inline" fill="#FFFFFF" d="M63.32,12.615c-2.303,1.021-4.775,1.711-7.373,2.021c2.65-1.588,4.687-4.104,5.644-7.101
		c-2.479,1.471-5.226,2.539-8.149,3.115c-2.342-2.495-5.678-4.054-9.368-4.054c-7.091,0-12.837,5.747-12.837,12.835
		c0,1.006,0.113,1.986,0.333,2.925C20.9,21.822,11.442,16.711,5.111,8.945c-1.105,1.896-1.738,4.101-1.738,6.454
		c0,4.453,2.266,8.382,5.71,10.684C6.979,26.016,5,25.438,3.27,24.477c-0.001,0.054-0.001,0.107-0.001,0.161
		c0,6.219,4.425,11.407,10.296,12.586c-1.077,0.293-2.211,0.449-3.382,0.449c-0.827,0-1.631-0.08-2.415-0.229
		c1.633,5.099,6.374,8.81,11.99,8.914c-4.393,3.44-9.927,5.494-15.941,5.494c-1.037,0-2.058-0.062-3.062-0.18
		c5.681,3.641,12.427,5.768,19.676,5.768c23.609,0,36.521-19.561,36.521-36.521c0-0.557-0.013-1.11-0.038-1.661
		C59.423,17.45,61.6,15.189,63.32,12.615z"/>
</g>
<g>
	<path fill="#FFFFFF" d="M57.846,56.18c1.391,0,2.596-0.458,3.619-1.364L43.943,37.293c-0.42,0.301-0.827,0.594-1.213,0.872
		c-1.311,0.967-2.375,1.721-3.192,2.26c-0.816,0.542-1.903,1.094-3.261,1.657c-1.358,0.564-2.623,0.845-3.797,0.845h-0.034h-0.034
		c-1.174,0-2.439-0.28-3.797-0.845c-1.357-0.563-2.445-1.115-3.261-1.657c-0.817-0.539-1.88-1.293-3.192-2.26
		c-0.365-0.268-0.771-0.562-1.209-0.877L3.428,54.815c1.024,0.906,2.229,1.364,3.62,1.364H57.846z"/>
	<path fill="#FFFFFF" d="M5.724,26.26c-1.312-0.874-2.474-1.875-3.486-3.003v26.658L17.68,34.472
		C14.591,32.315,10.61,29.581,5.724,26.26z"/>
	<path fill="#FFFFFF" d="M59.205,26.26c-4.701,3.182-8.695,5.92-11.986,8.219l15.437,15.437V23.257
		C61.666,24.362,60.517,25.362,59.205,26.26z"/>
	<path fill="#FFFFFF" d="M57.846,8.301H7.047c-1.772,0-3.135,0.599-4.089,1.794c-0.956,1.196-1.432,2.692-1.432,4.487
		c0,1.449,0.633,3.02,1.897,4.711c1.265,1.691,2.611,3.019,4.038,3.985c0.782,0.553,3.141,2.192,7.075,4.918
		c2.125,1.472,3.971,2.754,5.559,3.862c1.353,0.943,2.52,1.759,3.483,2.437c0.11,0.077,0.284,0.202,0.515,0.366
		c0.249,0.179,0.563,0.406,0.952,0.687c0.748,0.541,1.369,0.978,1.863,1.312c0.495,0.334,1.093,0.707,1.795,1.122
		c0.702,0.413,1.364,0.725,1.985,0.932c0.621,0.206,1.196,0.311,1.725,0.311h0.035h0.034c0.529,0,1.105-0.104,1.725-0.311
		c0.622-0.207,1.282-0.519,1.984-0.932c0.702-0.415,1.3-0.789,1.796-1.122c0.494-0.334,1.115-0.771,1.863-1.312
		c0.388-0.28,0.702-0.508,0.951-0.686c0.23-0.165,0.404-0.289,0.516-0.367c0.751-0.522,1.92-1.335,3.492-2.427
		c2.861-1.988,7.075-4.914,12.658-8.79c1.681-1.173,3.083-2.588,4.211-4.244c1.126-1.656,1.689-3.393,1.689-5.211
		c0-1.519-0.548-2.818-1.639-3.9C60.636,8.842,59.342,8.301,57.846,8.301z"/>
</g>
</svg>
