<?xml version="1.0" encoding="utf-8"?>
<!-- Generator: Adobe Illustrator 16.0.0, SVG Export Plug-In . SVG Version: 6.00 Build 0)  -->
<!DOCTYPE svg PUBLIC "-//W3C//DTD SVG 1.1//EN" "http://www.w3.org/Graphics/SVG/1.1/DTD/svg11.dtd">
<svg version="1.1" id="Layer_1" xmlns="http://www.w3.org/2000/svg" xmlns:xlink="http://www.w3.org/1999/xlink" x="0px" y="0px"
	 width="200px" height="200px" viewBox="0 0 200 200" enable-background="new 0 0 200 200" xml:space="preserve">
<g>
	<g>
		<rect x="2.917" y="2.917" fill="#C2D952" width="193.667" height="193.668"/>
		<path fill="#006838" d="M193.667,5.833v187.835H5.833V5.833H193.667 M199.5,0H0v199.501h199.5V0L199.5,0z"/>
	</g>
	<g>
		<path fill="#006838" d="M50.63,121.767V94.688c0-3.228-0.374-5.559-1.121-6.993c-0.748-1.435-2.107-2.152-4.079-2.152
			c-1.436,0-2.75,0.508-3.945,1.524c-1.197,1.017-2.004,2.302-2.421,3.855v30.844h-10.67V59.004h10.67v21.967h0.269
			c1.195-1.554,2.645-2.809,4.349-3.766c1.703-0.955,3.839-1.434,6.41-1.434c1.853,0,3.466,0.269,4.842,0.807
			c1.375,0.538,2.54,1.435,3.497,2.69c0.955,1.254,1.672,2.944,2.152,5.065c0.478,2.123,0.717,4.796,0.717,8.024v29.41H50.63z"/>
		<path fill="#006838" d="M65.153,76.936h4.931v-8.428l10.67-3.317v11.745h8.697v9.504h-8.697v19.545
			c0,2.57,0.253,4.394,0.762,5.468c0.507,1.077,1.419,1.615,2.734,1.615c0.897,0,1.705-0.089,2.421-0.269
			c0.717-0.179,1.493-0.448,2.331-0.807l1.346,8.517c-1.316,0.658-2.84,1.21-4.573,1.659c-1.734,0.447-3.557,0.673-5.469,0.673
			c-3.408,0-5.962-0.986-7.666-2.961c-1.704-1.971-2.556-5.289-2.556-9.95V86.44h-4.931V76.936z"/>
		<path fill="#006838" d="M115.45,121.767V95.675c0-3.766-0.3-6.38-0.896-7.846c-0.597-1.463-1.764-2.197-3.496-2.197
			c-1.435,0-2.615,0.464-3.541,1.39c-0.928,0.928-1.632,2.049-2.106,3.363v31.381H94.74V76.936h8.249l1.345,5.379h0.268
			c1.137-1.852,2.557-3.391,4.26-4.617c1.702-1.224,3.96-1.838,6.771-1.838c2.328,0,4.227,0.509,5.691,1.524
			c1.465,1.018,2.615,2.81,3.453,5.379c1.133-2.151,2.629-3.839,4.481-5.065c1.854-1.224,4.034-1.838,6.545-1.838
			c1.973,0,3.66,0.255,5.066,0.761c1.404,0.509,2.539,1.39,3.407,2.646c0.865,1.254,1.508,2.974,1.927,5.155
			c0.418,2.183,0.628,4.947,0.628,8.293v29.051h-10.67V94.51c0-3.049-0.268-5.291-0.807-6.725c-0.537-1.434-1.734-2.152-3.586-2.152
			c-1.494,0-2.705,0.435-3.633,1.301c-0.925,0.867-1.598,2.048-2.016,3.542v31.292H115.45z"/>
		<path fill="#006838" d="M165.031,107.24c0,2.093,0.208,3.587,0.627,4.482c0.418,0.898,1.106,1.346,2.062,1.346
			c0.539,0,1.09-0.059,1.66-0.179c0.565-0.119,1.208-0.328,1.927-0.629l0.985,8.607c-0.717,0.479-1.942,0.926-3.675,1.346
			c-1.734,0.417-3.496,0.628-5.29,0.628c-2.99,0-5.23-0.748-6.725-2.241c-1.493-1.495-2.242-4.034-2.242-7.621V59.004h10.67V107.24z
			"/>
	</g>
</g>
</svg>
