<?xml version="1.0" encoding="utf-8"?>
<!-- Generator: Adobe Illustrator 16.0.0, SVG Export Plug-In . SVG Version: 6.00 Build 0)  -->
<!DOCTYPE svg PUBLIC "-//W3C//DTD SVG 1.1//EN" "http://www.w3.org/Graphics/SVG/1.1/DTD/svg11.dtd">
<svg version="1.1" id="Layer_1" xmlns="http://www.w3.org/2000/svg" xmlns:xlink="http://www.w3.org/1999/xlink" x="0px" y="0px"
	 width="200px" height="200px" viewBox="0 0 200 200" enable-background="new 0 0 200 200" xml:space="preserve">
<g>
	<g>
		<rect x="2.424" y="2.924" fill="#A94E9E" width="194.152" height="194.152"/>
		<path fill="#662D91" d="M193.652,5.848v188.305H5.348V5.848H193.652 M199.5,0h-200v200h200V0L199.5,0z"/>
	</g>
	<g>
		<g>
			<path fill="#662D91" d="M70.173,54.873h12.944v71.906H70.173V54.873z"/>
			<path fill="#662D91" d="M130.162,108.7c0,2.877,0.034,5.752,0.104,8.628c0.068,2.876,0.342,6.061,0.822,9.552h-8.63l-1.642-5.958
				h-0.413c-2.328,4.796-6.403,7.193-12.224,7.193c-5.205,0-9.297-2.055-12.276-6.164c-2.979-4.109-4.468-10.787-4.468-20.031
				c0-9.04,1.609-15.904,4.828-20.597c3.219-4.69,8.013-7.036,14.381-7.036c1.645,0,3.012,0.104,4.111,0.308
				c1.093,0.205,2.156,0.549,3.184,1.027V54.873h12.223V108.7z M111.056,116.917c1.85,0,3.32-0.461,4.418-1.386
				c1.095-0.926,1.917-2.276,2.466-4.059V87.231c-0.687-0.617-1.457-1.062-2.312-1.336c-0.857-0.272-1.971-0.412-3.338-0.412
				c-2.739,0-4.794,1.233-6.164,3.697c-1.371,2.467-2.054,6.85-2.054,13.149c0,4.726,0.564,8.339,1.694,10.837
				C106.896,115.669,108.658,116.917,111.056,116.917z"/>
		</g>
	</g>
	<g>
		<path fill="#662D91" d="M25.678,183.264h-4.944l-1.229,4.794h-3.746l6.084-21.121h2.966l6.113,21.121h-3.956L25.678,183.264z
			 M21.543,180.209h3.475l-1.198-4.884l-0.479-3.297h-0.12l-0.51,3.326L21.543,180.209z"/>
		<path fill="#662D91" d="M42.905,182.785c0,0.839,0.01,1.679,0.029,2.518c0.019,0.839,0.1,1.766,0.239,2.786h-2.517l-0.479-1.738
			h-0.119c-0.681,1.398-1.869,2.098-3.565,2.098c-1.52,0-2.711-0.601-3.581-1.798c-0.869-1.198-1.303-3.147-1.303-5.843
			c0-2.636,0.469-4.638,1.408-6.008c0.938-1.367,2.337-2.053,4.193-2.053c0.48,0,0.88,0.031,1.199,0.091s0.629,0.16,0.93,0.3v-6.052
			h3.565V182.785z M37.332,185.183c0.539,0,0.968-0.135,1.288-0.406c0.319-0.269,0.559-0.662,0.72-1.183v-7.071
			c-0.201-0.179-0.426-0.309-0.675-0.39c-0.251-0.079-0.574-0.119-0.974-0.119c-0.8,0-1.398,0.358-1.798,1.079
			c-0.399,0.719-0.599,1.997-0.599,3.834c0,1.379,0.165,2.434,0.493,3.162C36.118,184.817,36.633,185.183,37.332,185.183z"/>
		<path fill="#662D91" d="M44.942,180.568c0-2.656,0.518-4.635,1.558-5.934c1.038-1.298,2.486-1.947,4.344-1.947
			c1.997,0,3.484,0.66,4.465,1.979c0.978,1.317,1.467,3.285,1.467,5.902c0,2.676-0.519,4.659-1.558,5.948
			c-1.038,1.286-2.497,1.932-4.374,1.932C46.907,188.448,44.942,185.822,44.942,180.568z M48.627,180.568
			c0,1.497,0.168,2.657,0.509,3.475c0.34,0.819,0.908,1.229,1.708,1.229c0.76,0,1.322-0.354,1.692-1.062
			c0.37-0.709,0.555-1.923,0.555-3.641c0-1.538-0.169-2.707-0.509-3.506c-0.341-0.799-0.919-1.198-1.738-1.198
			c-0.699,0-1.244,0.355-1.633,1.063C48.82,177.636,48.627,178.85,48.627,180.568z"/>
		<path fill="#662D91" d="M58.813,167.086h3.565v6.95h0.089c0.72-0.88,1.748-1.318,3.087-1.318c1.417,0,2.521,0.589,3.31,1.769
			c0.789,1.179,1.184,3.076,1.184,5.691c0,2.836-0.56,4.92-1.679,6.248c-1.118,1.329-2.646,1.991-4.583,1.991
			c-1.059,0-2.033-0.1-2.92-0.3c-0.889-0.199-1.574-0.418-2.053-0.658V167.086z M62.379,184.823
			c0.419,0.218,0.968,0.328,1.647,0.328c0.759,0,1.339-0.363,1.738-1.093c0.398-0.729,0.599-1.952,0.599-3.671
			c0-1.517-0.159-2.631-0.479-3.341c-0.319-0.708-0.818-1.063-1.499-1.063c-0.998,0-1.668,0.521-2.006,1.559V184.823z"/>
		<path fill="#662D91" d="M82.212,186.949c-0.498,0.44-1.179,0.8-2.036,1.078c-0.86,0.28-1.759,0.421-2.698,0.421
			c-1.038,0-1.932-0.181-2.68-0.541c-0.75-0.358-1.364-0.878-1.844-1.557s-0.833-1.502-1.063-2.473
			c-0.23-0.968-0.344-2.071-0.344-3.31c0-2.696,0.533-4.688,1.602-5.978c1.069-1.288,2.551-1.933,4.449-1.933
			c0.64,0,1.259,0.095,1.858,0.284c0.599,0.19,1.134,0.511,1.603,0.959c0.47,0.45,0.849,1.049,1.138,1.798
			c0.29,0.748,0.435,1.693,0.435,2.832c0,0.438-0.024,0.908-0.075,1.406c-0.05,0.5-0.124,1.04-0.224,1.62h-7.28
			c0.039,1.238,0.3,2.186,0.779,2.846c0.479,0.659,1.247,0.987,2.307,0.987c0.64,0,1.223-0.099,1.751-0.299
			c0.53-0.199,0.935-0.409,1.215-0.628L82.212,186.949z M77.538,175.714c-0.76,0-1.328,0.306-1.707,0.914
			c-0.381,0.609-0.6,1.464-0.659,2.562h4.134c0.06-1.138-0.06-2.002-0.359-2.592C78.646,176.009,78.177,175.714,77.538,175.714z"/>
		<path fill="#662D91" d="M91.439,167.086h3.775v20.972h-3.775V167.086z"/>
		<path fill="#662D91" d="M105.611,188.058v-9.107c0-1.098-0.13-1.868-0.39-2.307c-0.259-0.439-0.699-0.66-1.317-0.66
			c-0.521,0-0.97,0.161-1.349,0.479c-0.379,0.319-0.648,0.72-0.809,1.198v10.396h-3.565v-14.979h2.847l0.419,1.737h0.09
			c0.359-0.579,0.849-1.073,1.469-1.483c0.618-0.409,1.428-0.614,2.427-0.614c0.6,0,1.133,0.089,1.603,0.27
			c0.469,0.182,0.864,0.475,1.184,0.884c0.32,0.411,0.559,0.96,0.72,1.649c0.159,0.688,0.238,1.542,0.238,2.561v9.977H105.611z"/>
		<path fill="#662D91" d="M111.693,167.086c0.359-0.062,0.764-0.105,1.214-0.137c0.448-0.028,0.908-0.06,1.378-0.088
			c0.468-0.031,0.924-0.05,1.363-0.06c0.438-0.011,0.829-0.016,1.169-0.016c1.657,0,3.042,0.254,4.149,0.765
			c1.108,0.509,1.997,1.227,2.667,2.156c0.668,0.929,1.143,2.043,1.422,3.34c0.28,1.3,0.42,2.748,0.42,4.346
			c0,1.457-0.135,2.851-0.404,4.179c-0.27,1.329-0.745,2.498-1.423,3.505c-0.68,1.01-1.599,1.812-2.757,2.413
			c-1.159,0.6-2.617,0.899-4.374,0.899c-0.261,0-0.61-0.011-1.05-0.031c-0.438-0.019-0.898-0.044-1.377-0.075
			c-0.479-0.028-0.938-0.06-1.378-0.09c-0.44-0.029-0.779-0.064-1.02-0.104V167.086z M117.205,170.262
			c-0.318,0-0.643,0.004-0.973,0.015c-0.329,0.011-0.584,0.036-0.765,0.075v14.44c0.062,0.021,0.165,0.035,0.315,0.046
			c0.149,0.011,0.309,0.02,0.479,0.029c0.17,0.01,0.331,0.021,0.479,0.03c0.15,0.011,0.254,0.015,0.314,0.015
			c0.899,0,1.637-0.21,2.217-0.63s1.034-0.979,1.363-1.678c0.33-0.697,0.561-1.502,0.689-2.411c0.13-0.908,0.195-1.861,0.195-2.86
			c0-0.92-0.057-1.809-0.165-2.667c-0.109-0.86-0.32-1.613-0.63-2.263c-0.309-0.649-0.748-1.168-1.318-1.558
			C118.839,170.455,118.106,170.262,117.205,170.262z"/>
		<path fill="#662D91" d="M137.789,186.949c-0.499,0.44-1.179,0.8-2.037,1.078c-0.86,0.28-1.759,0.421-2.698,0.421
			c-1.038,0-1.932-0.181-2.68-0.541c-0.749-0.358-1.364-0.878-1.844-1.557s-0.833-1.502-1.063-2.473
			c-0.229-0.968-0.343-2.071-0.343-3.31c0-2.696,0.533-4.688,1.601-5.978c1.069-1.288,2.552-1.933,4.45-1.933
			c0.64,0,1.259,0.095,1.857,0.284c0.6,0.19,1.134,0.511,1.603,0.959c0.471,0.45,0.849,1.049,1.139,1.798
			c0.29,0.748,0.435,1.693,0.435,2.832c0,0.438-0.025,0.908-0.075,1.406c-0.051,0.5-0.124,1.04-0.225,1.62h-7.28
			c0.04,1.238,0.3,2.186,0.779,2.846c0.479,0.659,1.247,0.987,2.307,0.987c0.64,0,1.224-0.099,1.752-0.299
			c0.529-0.199,0.935-0.409,1.213-0.628L137.789,186.949z M133.113,175.714c-0.759,0-1.326,0.306-1.706,0.914
			c-0.381,0.609-0.599,1.464-0.658,2.562h4.133c0.06-1.138-0.06-2.002-0.358-2.592C134.224,176.009,133.753,175.714,133.113,175.714
			z"/>
		<path fill="#662D91" d="M145.519,184.073c0-0.42-0.134-0.772-0.404-1.062c-0.269-0.29-0.614-0.561-1.033-0.811
			c-0.42-0.249-0.864-0.503-1.333-0.763c-0.47-0.261-0.914-0.579-1.334-0.96c-0.419-0.38-0.764-0.839-1.033-1.379
			c-0.27-0.539-0.404-1.217-0.404-2.036c0-1.397,0.379-2.477,1.138-3.235s1.878-1.14,3.356-1.14c0.879,0,1.707,0.096,2.487,0.285
			c0.779,0.19,1.397,0.424,1.857,0.704l-0.839,2.756c-0.381-0.159-0.839-0.313-1.379-0.464c-0.539-0.148-1.069-0.224-1.587-0.224
			c-0.979,0-1.47,0.409-1.47,1.228c0,0.38,0.136,0.694,0.405,0.944c0.27,0.249,0.614,0.493,1.033,0.733
			c0.42,0.24,0.864,0.489,1.334,0.748c0.469,0.262,0.913,0.586,1.333,0.974c0.419,0.391,0.764,0.864,1.033,1.425
			c0.271,0.559,0.404,1.248,0.404,2.065c0,1.38-0.419,2.488-1.258,3.327c-0.839,0.838-2.088,1.259-3.745,1.259
			c-0.82,0-1.623-0.101-2.412-0.3c-0.788-0.2-1.422-0.459-1.901-0.78l0.987-2.876c0.419,0.24,0.905,0.45,1.454,0.631
			c0.549,0.18,1.124,0.268,1.723,0.268c0.458,0,0.839-0.104,1.139-0.314C145.369,184.867,145.519,184.533,145.519,184.073z"/>
		<path fill="#662D91" d="M150.881,168.853c0-0.599,0.19-1.093,0.57-1.483c0.379-0.389,0.918-0.583,1.617-0.583
			c0.7,0,1.259,0.19,1.678,0.569c0.42,0.379,0.63,0.879,0.63,1.497c0,0.619-0.21,1.109-0.63,1.469
			c-0.419,0.359-0.978,0.54-1.678,0.54c-0.699,0-1.238-0.186-1.617-0.556C151.071,169.938,150.881,169.453,150.881,168.853z
			 M151.271,173.078h3.565v14.979h-3.565V173.078z"/>
		<path fill="#662D91" d="M168.438,188.058c0,2.177-0.499,3.78-1.499,4.81c-0.998,1.029-2.386,1.542-4.164,1.542
			c-1.238,0-2.206-0.094-2.905-0.283c-0.699-0.191-1.239-0.396-1.618-0.615l0.748-3.025c0.44,0.18,0.914,0.348,1.424,0.508
			c0.51,0.161,1.113,0.24,1.812,0.24c1.019,0,1.723-0.274,2.113-0.823c0.388-0.549,0.583-1.383,0.583-2.503V187.1h-0.089
			c-0.281,0.4-0.655,0.699-1.124,0.898c-0.471,0.199-1.074,0.3-1.812,0.3c-1.578,0-2.763-0.593-3.551-1.781
			s-1.184-3.073-1.184-5.649c0-2.775,0.544-4.823,1.634-6.142c1.088-1.318,2.64-1.979,4.657-1.979c1.08,0,2.049,0.086,2.907,0.256
			c0.858,0.169,1.547,0.375,2.067,0.614V188.058z M162.896,185.242c0.539,0,0.963-0.129,1.272-0.391
			c0.31-0.259,0.543-0.629,0.704-1.108v-7.49c-0.221-0.099-0.464-0.18-0.735-0.239c-0.268-0.06-0.583-0.09-0.942-0.09
			c-0.739,0-1.313,0.359-1.724,1.079c-0.41,0.718-0.612,1.957-0.612,3.716C160.859,183.733,161.537,185.242,162.896,185.242z"/>
		<path fill="#662D91" d="M178.415,188.058v-9.107c0-1.098-0.131-1.868-0.39-2.307c-0.259-0.439-0.699-0.66-1.317-0.66
			c-0.521,0-0.971,0.161-1.35,0.479c-0.378,0.319-0.649,0.72-0.808,1.198v10.396h-3.565v-14.979h2.847l0.419,1.737h0.09
			c0.358-0.579,0.848-1.073,1.468-1.483c0.619-0.409,1.428-0.614,2.427-0.614c0.6,0,1.134,0.089,1.603,0.27
			c0.47,0.182,0.863,0.475,1.185,0.884c0.318,0.411,0.559,0.96,0.719,1.649c0.158,0.688,0.239,1.542,0.239,2.561v9.977H178.415z"/>
	</g>
</g>
</svg>
