<?xml version="1.0" encoding="utf-8"?>
<!-- Generator: Adobe Illustrator 16.0.0, SVG Export Plug-In . SVG Version: 6.00 Build 0)  -->
<!DOCTYPE svg PUBLIC "-//W3C//DTD SVG 1.1//EN" "http://www.w3.org/Graphics/SVG/1.1/DTD/svg11.dtd">
<svg version="1.1" id="Layer_1" xmlns="http://www.w3.org/2000/svg" xmlns:xlink="http://www.w3.org/1999/xlink" x="0px" y="0px"
	 width="200px" height="200px" viewBox="0 0 200 200" enable-background="new 0 0 200 200" xml:space="preserve">
<g>
	<g>
		<rect x="2.424" y="2.924" fill="#DAD7C5" width="194.152" height="194.152"/>
		<path fill="#767769" d="M193.652,5.847v188.305H5.348V5.847H193.652 M199.5,0h-200v200h200V0L199.5,0z"/>
	</g>
	<g>
		<path fill="#767769" d="M78.514,72.849h10.695v46.83c0,5.452-0.943,9.618-2.831,12.493c-1.888,2.876-4.898,4.314-9.033,4.314
			c-1.679,0-3.386-0.209-5.124-0.629v-9.528c2.577,0.239,4.269-0.493,5.079-2.202c0.809-1.708,1.214-4.239,1.214-7.595V72.849z
			 M77.254,60.176c0-1.798,0.569-3.281,1.708-4.449c1.139-1.168,2.755-1.753,4.854-1.753c2.098,0,3.775,0.57,5.034,1.708
			c1.258,1.139,1.888,2.638,1.888,4.495c0,1.858-0.63,3.326-1.888,4.404c-1.259,1.078-2.937,1.618-5.034,1.618
			c-2.1,0-3.716-0.553-4.854-1.663C77.823,63.427,77.254,61.973,77.254,60.176z"/>
		<path fill="#767769" d="M112.848,105.836c0-1.258-0.405-2.321-1.214-3.19c-0.808-0.867-1.842-1.677-3.101-2.427
			c-1.257-0.749-2.592-1.512-3.999-2.292c-1.41-0.778-2.742-1.737-4.001-2.876c-1.258-1.138-2.291-2.517-3.102-4.134
			c-0.809-1.618-1.213-3.654-1.213-6.113c0-4.193,1.139-7.429,3.416-9.707c2.276-2.276,5.632-3.416,10.066-3.416
			c2.637,0,5.124,0.285,7.461,0.854c2.337,0.57,4.194,1.273,5.574,2.112l-2.518,8.27c-1.139-0.479-2.519-0.944-4.135-1.394
			c-1.618-0.449-3.206-0.674-4.765-0.674c-2.937,0-4.404,1.229-4.404,3.685c0,1.139,0.405,2.083,1.213,2.831
			c0.811,0.75,1.843,1.483,3.102,2.202c1.259,0.72,2.592,1.469,3.999,2.248c1.408,0.78,2.742,1.753,4.002,2.921
			c1.256,1.169,2.291,2.593,3.1,4.27c0.81,1.678,1.214,3.746,1.214,6.202c0,4.135-1.258,7.461-3.775,9.977
			c-2.517,2.519-6.263,3.774-11.235,3.774c-2.458,0-4.869-0.299-7.236-0.897s-4.269-1.379-5.708-2.337l2.968-8.629
			c1.259,0.719,2.711,1.349,4.358,1.888s3.372,0.809,5.169,0.809c1.376,0,2.517-0.314,3.416-0.943
			C112.397,108.219,112.848,107.216,112.848,105.836z"/>
	</g>
	<g>
		<g>
			<path fill="#767769" d="M49.572,167.086h3.774v15.25c0,0.918-0.074,1.753-0.225,2.502c-0.149,0.749-0.395,1.389-0.735,1.917
				c-0.339,0.53-0.787,0.939-1.347,1.228c-0.56,0.29-1.259,0.435-2.098,0.435c-0.58,0-1.154-0.06-1.722-0.179
				c-0.57-0.121-1.085-0.29-1.545-0.511l0.87-3.176c0.419,0.262,0.908,0.391,1.468,0.391c0.698,0,1.133-0.295,1.303-0.884
				s0.256-1.433,0.256-2.532V167.086z"/>
			<path fill="#767769" d="M56.162,173.977c0.6-0.359,1.349-0.649,2.247-0.869c0.898-0.219,1.918-0.329,3.056-0.329
				c1.698,0,2.881,0.438,3.552,1.317c0.668,0.88,1.003,2.128,1.003,3.746c0,0.938-0.024,1.862-0.075,2.771
				c-0.05,0.91-0.086,1.798-0.104,2.667c-0.02,0.869-0.006,1.708,0.044,2.517s0.187,1.572,0.406,2.293h-2.907l-0.569-1.828h-0.12
				c-0.318,0.58-0.769,1.059-1.349,1.438c-0.58,0.378-1.308,0.568-2.186,0.568c-1.18,0-2.107-0.394-2.787-1.184
				c-0.68-0.788-1.019-1.842-1.019-3.16c0-1.799,0.639-3.075,1.918-3.836c1.277-0.759,3.005-1.077,5.183-0.958
				c0.101-1.157,0.025-1.997-0.224-2.518c-0.252-0.518-0.785-0.779-1.604-0.779c-0.599,0-1.218,0.071-1.857,0.211
				c-0.64,0.139-1.209,0.339-1.708,0.6L56.162,173.977z M60.446,185.212c0.539,0,0.979-0.136,1.318-0.404
				c0.34-0.27,0.59-0.564,0.749-0.884v-2.486c-0.459-0.061-0.898-0.07-1.318-0.03c-0.419,0.04-0.79,0.131-1.108,0.27
				c-0.319,0.14-0.574,0.345-0.764,0.613c-0.19,0.271-0.284,0.614-0.284,1.034c0,0.619,0.124,1.09,0.374,1.408
				C59.662,185.054,60.007,185.212,60.446,185.212z"/>
			<path fill="#767769" d="M73.061,180.898l0.358,2.365h0.119l0.331-2.396l1.857-7.789h3.836l-5.035,15.13h-2.396l-5.304-15.13
				h4.165L73.061,180.898z"/>
			<path fill="#767769" d="M80.49,173.977c0.6-0.359,1.349-0.649,2.247-0.869c0.898-0.219,1.918-0.329,3.056-0.329
				c1.698,0,2.881,0.438,3.552,1.317c0.669,0.88,1.003,2.128,1.003,3.746c0,0.938-0.025,1.862-0.075,2.771
				c-0.05,0.91-0.086,1.798-0.104,2.667c-0.02,0.869-0.005,1.708,0.045,2.517s0.185,1.572,0.404,2.293h-2.905l-0.57-1.828h-0.119
				c-0.32,0.58-0.77,1.059-1.35,1.438c-0.579,0.378-1.308,0.568-2.187,0.568c-1.178,0-2.107-0.394-2.786-1.184
				c-0.68-0.788-1.019-1.842-1.019-3.16c0-1.799,0.638-3.075,1.917-3.836c1.278-0.759,3.006-1.077,5.184-0.958
				c0.101-1.157,0.025-1.997-0.225-2.518c-0.25-0.518-0.785-0.779-1.604-0.779c-0.599,0-1.218,0.071-1.857,0.211
				c-0.64,0.139-1.209,0.339-1.708,0.6L80.49,173.977z M84.774,185.212c0.539,0,0.979-0.136,1.318-0.404
				c0.34-0.27,0.59-0.564,0.749-0.884v-2.486c-0.459-0.061-0.898-0.07-1.318-0.03c-0.419,0.04-0.79,0.131-1.108,0.27
				c-0.318,0.14-0.574,0.345-0.764,0.613c-0.191,0.271-0.284,0.614-0.284,1.034c0,0.619,0.124,1.09,0.374,1.408
				C83.99,185.054,84.335,185.212,84.774,185.212z"/>
			<path fill="#767769" d="M100.233,182.664c0-0.638-0.188-1.182-0.567-1.632c-0.381-0.448-0.854-0.873-1.424-1.273
				c-0.569-0.398-1.188-0.809-1.857-1.228c-0.67-0.42-1.289-0.908-1.857-1.469c-0.57-0.559-1.045-1.218-1.425-1.978
				c-0.378-0.759-0.567-1.688-0.567-2.786c0-1.02,0.155-1.882,0.464-2.592c0.31-0.709,0.734-1.289,1.273-1.737
				c0.539-0.45,1.179-0.78,1.917-0.989c0.739-0.21,1.529-0.315,2.367-0.315c1.019,0,1.967,0.101,2.847,0.3
				c0.878,0.2,1.607,0.471,2.188,0.811l-1.169,3.325c-0.34-0.239-0.845-0.46-1.513-0.658c-0.669-0.199-1.394-0.301-2.173-0.301
				s-1.378,0.161-1.797,0.479c-0.42,0.319-0.63,0.789-0.63,1.407c0,0.561,0.189,1.055,0.57,1.484
				c0.378,0.429,0.853,0.845,1.422,1.243c0.569,0.399,1.188,0.814,1.856,1.243c0.671,0.43,1.289,0.929,1.859,1.497
				c0.568,0.569,1.044,1.239,1.423,2.009s0.57,1.684,0.57,2.741s-0.156,1.977-0.466,2.757c-0.311,0.778-0.748,1.423-1.318,1.933
				c-0.568,0.508-1.254,0.894-2.053,1.153c-0.798,0.259-1.687,0.389-2.667,0.389c-1.238,0-2.32-0.12-3.25-0.36
				c-0.93-0.238-1.642-0.509-2.141-0.809l1.227-3.385c0.399,0.238,0.948,0.479,1.649,0.719c0.699,0.24,1.447,0.36,2.247,0.36
				C99.235,185.003,100.233,184.223,100.233,182.664z"/>
			<path fill="#767769" d="M114.825,187.249c-0.499,0.399-1.099,0.699-1.798,0.899c-0.7,0.199-1.399,0.3-2.098,0.3
				c-1.018,0-1.872-0.185-2.562-0.555c-0.688-0.369-1.254-0.898-1.693-1.589c-0.438-0.689-0.753-1.517-0.942-2.486
				c-0.191-0.968-0.284-2.053-0.284-3.25c0-2.617,0.468-4.585,1.407-5.902c0.938-1.318,2.317-1.979,4.136-1.979
				c0.898,0,1.632,0.08,2.2,0.24c0.57,0.16,1.075,0.36,1.513,0.6l-0.837,2.966c-0.361-0.181-0.704-0.313-1.035-0.404
				c-0.328-0.09-0.723-0.135-1.183-0.135c-0.839,0-1.469,0.364-1.888,1.093c-0.42,0.73-0.629,1.903-0.629,3.521
				c0,1.357,0.214,2.467,0.645,3.325c0.429,0.86,1.112,1.289,2.051,1.289c0.499,0,0.925-0.066,1.275-0.195
				c0.35-0.13,0.674-0.296,0.974-0.495L114.825,187.249z"/>
			<path fill="#767769" d="M123.544,176.612c-0.479-0.18-0.92-0.269-1.319-0.269c-0.54,0-1.004,0.149-1.392,0.449
				c-0.391,0.3-0.655,0.719-0.795,1.259v10.006h-3.565v-14.979h2.727l0.42,1.797h0.119c0.26-0.658,0.634-1.173,1.123-1.543
				c0.489-0.368,1.054-0.554,1.693-0.554c0.479,0,0.948,0.101,1.408,0.3L123.544,176.612z"/>
			<path fill="#767769" d="M125.162,168.853c0-0.599,0.188-1.093,0.569-1.483c0.379-0.389,0.919-0.583,1.618-0.583
				s1.257,0.19,1.678,0.569c0.418,0.379,0.628,0.879,0.628,1.497c0,0.619-0.21,1.11-0.628,1.469c-0.421,0.359-0.979,0.54-1.678,0.54
				s-1.239-0.186-1.618-0.556C125.351,169.938,125.162,169.453,125.162,168.853z M125.552,173.078h3.565v14.979h-3.565V173.078z"/>
			<path fill="#767769" d="M131.993,173.078h2.666l0.36,1.707h0.088c0.461-0.718,0.975-1.243,1.544-1.572
				c0.568-0.331,1.272-0.495,2.112-0.495c1.518,0,2.661,0.575,3.431,1.723c0.768,1.149,1.154,3.062,1.154,5.737
				c0,2.678-0.48,4.73-1.439,6.158c-0.959,1.429-2.347,2.142-4.164,2.142c-0.48,0-0.89-0.04-1.229-0.12
				c-0.34-0.079-0.658-0.209-0.958-0.39v6.083h-3.565V173.078z M135.559,184.702c0.198,0.2,0.423,0.352,0.673,0.449
				c0.251,0.102,0.574,0.151,0.974,0.151c0.8,0,1.408-0.395,1.828-1.185c0.419-0.789,0.629-2.132,0.629-4.03
				c0-1.417-0.16-2.471-0.479-3.16c-0.32-0.688-0.851-1.033-1.588-1.033c-1,0-1.678,0.588-2.037,1.767V184.702z"/>
			<path fill="#767769" d="M144.216,173.078h1.649v-2.816l3.564-1.109v3.926h2.906v3.175h-2.906v6.532
				c0,0.859,0.085,1.468,0.254,1.828c0.17,0.359,0.475,0.538,0.914,0.538c0.299,0,0.57-0.028,0.809-0.089
				c0.24-0.06,0.499-0.15,0.779-0.271l0.449,2.847c-0.439,0.22-0.948,0.404-1.528,0.554c-0.578,0.149-1.188,0.225-1.828,0.225
				c-1.138,0-1.991-0.328-2.561-0.989c-0.569-0.658-0.853-1.766-0.853-3.325v-7.85h-1.649V173.078z"/>
		</g>
	</g>
</g>
</svg>
