<?xml version="1.0" encoding="utf-8"?>
<!-- Generator: Adobe Illustrator 16.0.0, SVG Export Plug-In . SVG Version: 6.00 Build 0)  -->
<!DOCTYPE svg PUBLIC "-//W3C//DTD SVG 1.1//EN" "http://www.w3.org/Graphics/SVG/1.1/DTD/svg11.dtd">
<svg version="1.1" id="Layer_1" xmlns="http://www.w3.org/2000/svg" xmlns:xlink="http://www.w3.org/1999/xlink" x="0px" y="0px"
	 width="200px" height="200px" viewBox="0 0 200 200" enable-background="new 0 0 200 200" xml:space="preserve">
<g>
	<g>
		<rect x="2.917" y="2.916" fill="#1C75BC" width="193.667" height="193.668"/>
		<path fill="#2B3990" d="M193.667,5.833v187.834H5.833V5.833H193.667 M199.5,0H0v199.5h199.5V0L199.5,0z"/>
	</g>
	<g>
		<g>
			<path fill="#2B3990" d="M63.17,55.453c2.458-0.547,5.157-0.974,8.095-1.282c2.936-0.308,5.874-0.461,8.812-0.461
				c3.141,0,6.232,0.292,9.274,0.871c3.039,0.582,5.752,1.726,8.146,3.432c2.39,1.71,4.336,4.116,5.839,7.225
				c1.501,3.109,2.254,7.157,2.254,12.145c0,4.508-0.632,8.333-1.896,11.475c-1.264,3.143-2.955,5.705-5.073,7.685
				c-2.118,1.981-4.558,3.417-7.325,4.304c-2.767,0.888-5.62,1.333-8.556,1.333c-0.273,0-0.718,0-1.332,0
				c-0.615,0-1.265-0.017-1.947-0.053c-0.684-0.033-1.35-0.083-1.998-0.152c-0.65-0.067-1.112-0.137-1.384-0.207v24.696H63.17
				V55.453z M76.081,90.19c0.41,0.135,1.179,0.255,2.306,0.357c1.126,0.103,1.895,0.153,2.305,0.153
				c1.502,0,2.937-0.206,4.304-0.614c1.366-0.411,2.578-1.11,3.637-2.102c1.059-0.989,1.896-2.357,2.511-4.099
				c0.614-1.741,0.921-3.945,0.921-6.608c0-2.254-0.291-4.166-0.871-5.738c-0.581-1.572-1.367-2.817-2.357-3.74
				c-0.991-0.922-2.135-1.589-3.433-1.999c-1.298-0.409-2.664-0.613-4.099-0.613c-2.118,0-3.86,0.17-5.226,0.511V90.19z"/>
			<path fill="#2B3990" d="M126.699,112.833c0-1.434-0.461-2.646-1.385-3.637c-0.922-0.989-2.099-1.912-3.534-2.768
				c-1.436-0.854-2.955-1.725-4.559-2.612c-1.607-0.887-3.126-1.98-4.561-3.278c-1.436-1.298-2.613-2.869-3.534-4.714
				c-0.922-1.845-1.385-4.166-1.385-6.968c0-4.78,1.297-8.47,3.896-11.067c2.595-2.595,6.418-3.894,11.475-3.894
				c3.006,0,5.841,0.325,8.505,0.975c2.665,0.648,4.78,1.452,6.354,2.408l-2.87,9.426c-1.299-0.545-2.869-1.076-4.714-1.587
				c-1.846-0.514-3.655-0.77-5.431-0.77c-3.347,0-5.021,1.401-5.021,4.202c0,1.298,0.462,2.374,1.384,3.227
				c0.921,0.855,2.1,1.69,3.533,2.511c1.435,0.819,2.955,1.676,4.562,2.562c1.603,0.889,3.123,1.998,4.558,3.33
				c1.435,1.331,2.613,2.954,3.535,4.867c0.924,1.912,1.384,4.27,1.384,7.069c0,4.713-1.435,8.505-4.305,11.374
				c-2.869,2.871-7.139,4.305-12.808,4.305c-2.802,0-5.552-0.344-8.248-1.026c-2.698-0.681-4.866-1.57-6.507-2.662l3.382-9.837
				c1.435,0.818,3.089,1.536,4.969,2.151c1.879,0.614,3.844,0.921,5.893,0.921c1.57,0,2.868-0.358,3.895-1.076
				C126.188,115.549,126.699,114.406,126.699,112.833z"/>
		</g>
	</g>
	<g>
		<path fill="#2B3990" d="M15.936,182.806h-4.931l-1.226,4.782H6.043l6.067-21.069h2.959l6.097,21.069h-3.946L15.936,182.806z
			 M11.812,179.758h3.466l-1.195-4.871l-0.479-3.288h-0.12l-0.508,3.317L11.812,179.758z"/>
		<path fill="#2B3990" d="M33.12,182.327c0,0.837,0.01,1.675,0.029,2.512c0.02,0.837,0.1,1.762,0.239,2.78h-2.51l-0.478-1.735h-0.12
			c-0.678,1.396-1.863,2.093-3.557,2.093c-1.515,0-2.705-0.598-3.571-1.794c-0.868-1.195-1.3-3.138-1.3-5.828
			c0-2.629,0.467-4.626,1.404-5.991c0.937-1.364,2.332-2.048,4.185-2.048c0.479,0,0.877,0.03,1.195,0.091
			c0.318,0.06,0.628,0.159,0.927,0.299v-6.038h3.556V182.327z M27.561,184.719c0.538,0,0.966-0.134,1.286-0.403
			c0.318-0.269,0.557-0.662,0.717-1.181v-7.054c-0.2-0.179-0.424-0.308-0.672-0.388c-0.25-0.079-0.573-0.12-0.972-0.12
			c-0.798,0-1.396,0.358-1.793,1.077c-0.399,0.718-0.598,1.991-0.598,3.824c0,1.375,0.164,2.428,0.492,3.153
			C26.351,184.354,26.863,184.719,27.561,184.719z"/>
		<path fill="#2B3990" d="M35.152,180.116c0-2.648,0.518-4.622,1.554-5.918c1.036-1.295,2.48-1.943,4.333-1.943
			c1.992,0,3.476,0.659,4.453,1.975c0.976,1.314,1.465,3.276,1.465,5.887c0,2.67-0.519,4.647-1.555,5.934
			c-1.036,1.284-2.491,1.927-4.362,1.927C37.113,187.977,35.152,185.357,35.152,180.116z M38.828,180.116
			c0,1.494,0.168,2.65,0.507,3.467c0.339,0.816,0.906,1.226,1.704,1.226c0.757,0,1.318-0.353,1.688-1.061
			c0.368-0.708,0.553-1.918,0.553-3.632c0-1.534-0.169-2.698-0.509-3.497c-0.339-0.796-0.916-1.194-1.733-1.194
			c-0.698,0-1.241,0.354-1.629,1.061C39.021,177.191,38.828,178.402,38.828,180.116z"/>
		<path fill="#2B3990" d="M48.989,166.667h3.556v6.934h0.089c0.717-0.877,1.743-1.314,3.079-1.314c1.415,0,2.515,0.589,3.302,1.764
			c0.786,1.176,1.181,3.069,1.181,5.678c0,2.83-0.559,4.907-1.675,6.231c-1.116,1.326-2.639,1.988-4.572,1.988
			c-1.056,0-2.028-0.101-2.913-0.299c-0.887-0.199-1.569-0.419-2.047-0.658V166.667z M52.545,184.361
			c0.418,0.218,0.966,0.328,1.643,0.328c0.758,0,1.336-0.363,1.735-1.091c0.397-0.728,0.597-1.948,0.597-3.661
			c0-1.515-0.16-2.626-0.478-3.333c-0.32-0.706-0.817-1.061-1.496-1.061c-0.997,0-1.664,0.519-2.001,1.555V184.361z"/>
		<path fill="#2B3990" d="M72.329,186.481c-0.497,0.439-1.175,0.798-2.031,1.076c-0.858,0.278-1.754,0.419-2.691,0.419
			c-1.035,0-1.927-0.179-2.674-0.539c-0.748-0.357-1.36-0.875-1.838-1.554c-0.479-0.677-0.831-1.498-1.061-2.466
			c-0.229-0.966-0.343-2.065-0.343-3.302c0-2.689,0.532-4.676,1.598-5.963c1.066-1.285,2.545-1.927,4.438-1.927
			c0.638,0,1.256,0.094,1.854,0.283c0.597,0.191,1.13,0.51,1.598,0.957c0.468,0.448,0.846,1.046,1.135,1.793
			s0.434,1.689,0.434,2.825c0,0.438-0.025,0.905-0.075,1.403c-0.05,0.499-0.124,1.036-0.224,1.615h-7.262
			c0.039,1.235,0.299,2.181,0.777,2.839c0.478,0.657,1.244,0.986,2.299,0.986c0.638,0,1.221-0.1,1.749-0.3
			c0.528-0.198,0.931-0.408,1.21-0.627L72.329,186.481z M67.667,175.274c-0.757,0-1.325,0.304-1.702,0.912
			c-0.379,0.608-0.598,1.46-0.658,2.555h4.124c0.06-1.135-0.06-1.997-0.358-2.584C68.773,175.569,68.305,175.274,67.667,175.274z"/>
		<path fill="#2B3990" d="M81.206,166.877c0.717-0.16,1.503-0.285,2.359-0.373c0.858-0.091,1.714-0.136,2.572-0.136
			c0.916,0,1.817,0.086,2.705,0.255c0.887,0.17,1.679,0.503,2.376,1c0.696,0.499,1.265,1.201,1.703,2.107
			c0.438,0.907,0.658,2.088,0.658,3.543c0,1.314-0.184,2.43-0.552,3.346c-0.37,0.918-0.863,1.664-1.48,2.242
			c-0.617,0.579-1.331,0.996-2.137,1.255c-0.808,0.259-1.64,0.39-2.496,0.39c-0.081,0-0.21,0-0.389,0
			c-0.18,0-0.369-0.006-0.567-0.016c-0.2-0.01-0.393-0.025-0.583-0.045c-0.189-0.021-0.324-0.039-0.403-0.06v7.202h-3.765V166.877z
			 M84.971,177.009c0.12,0.039,0.344,0.074,0.673,0.104c0.33,0.029,0.553,0.045,0.672,0.045c0.438,0,0.856-0.059,1.255-0.179
			c0.398-0.12,0.752-0.323,1.061-0.613c0.31-0.288,0.553-0.687,0.732-1.194c0.179-0.508,0.27-1.151,0.27-1.928
			c0-0.658-0.085-1.215-0.254-1.674c-0.17-0.459-0.399-0.823-0.688-1.091c-0.289-0.27-0.623-0.463-1-0.583
			c-0.378-0.119-0.777-0.179-1.195-0.179c-0.619,0-1.125,0.05-1.525,0.148V177.009z"/>
		<path fill="#2B3990" d="M102.813,187.588v-9.025c0-1.076-0.125-1.853-0.374-2.332c-0.251-0.479-0.702-0.718-1.36-0.718
			c-0.479,0-0.916,0.17-1.315,0.509c-0.399,0.34-0.667,0.768-0.806,1.286v10.28h-3.557v-20.921h3.557v7.323h0.088
			c0.4-0.519,0.883-0.937,1.45-1.255c0.568-0.32,1.28-0.48,2.138-0.48c0.617,0,1.154,0.091,1.613,0.271
			c0.457,0.18,0.847,0.479,1.166,0.896c0.318,0.419,0.558,0.981,0.717,1.688c0.158,0.708,0.24,1.6,0.24,2.676v9.802H102.813z"/>
		<path fill="#2B3990" d="M108.281,180.116c0-2.648,0.518-4.622,1.555-5.918c1.035-1.295,2.481-1.943,4.334-1.943
			c1.991,0,3.475,0.659,4.452,1.975c0.976,1.314,1.465,3.276,1.465,5.887c0,2.67-0.519,4.647-1.555,5.934
			c-1.036,1.284-2.491,1.927-4.362,1.927C110.242,187.977,108.281,185.357,108.281,180.116z M111.958,180.116
			c0,1.494,0.169,2.65,0.507,3.467c0.339,0.816,0.906,1.226,1.705,1.226c0.757,0,1.318-0.353,1.688-1.061s0.553-1.918,0.553-3.632
			c0-1.534-0.169-2.698-0.508-3.497c-0.339-0.796-0.916-1.194-1.732-1.194c-0.698,0-1.242,0.354-1.629,1.061
			C112.151,177.191,111.958,178.402,111.958,180.116z"/>
		<path fill="#2B3990" d="M120.953,172.645h1.645v-2.809l3.556-1.106v3.915h2.899v3.168h-2.899v6.515
			c0,0.857,0.085,1.466,0.253,1.823c0.17,0.359,0.474,0.539,0.912,0.539c0.299,0,0.568-0.029,0.807-0.09
			c0.239-0.06,0.498-0.15,0.777-0.27l0.449,2.839c-0.439,0.22-0.946,0.404-1.525,0.554c-0.577,0.149-1.186,0.225-1.823,0.225
			c-1.135,0-1.987-0.328-2.555-0.987c-0.568-0.657-0.851-1.762-0.851-3.318v-7.829h-1.645V172.645z"/>
		<path fill="#2B3990" d="M130.276,180.116c0-2.648,0.518-4.622,1.554-5.918c1.036-1.295,2.481-1.943,4.334-1.943
			c1.991,0,3.476,0.659,4.453,1.975c0.976,1.314,1.465,3.276,1.465,5.887c0,2.67-0.519,4.647-1.556,5.934
			c-1.035,1.284-2.49,1.927-4.362,1.927C132.237,187.977,130.276,185.357,130.276,180.116z M133.953,180.116
			c0,1.494,0.168,2.65,0.508,3.467c0.338,0.816,0.905,1.226,1.703,1.226c0.757,0,1.319-0.353,1.688-1.061
			c0.368-0.708,0.553-1.918,0.553-3.632c0-1.534-0.169-2.698-0.508-3.497c-0.339-0.796-0.916-1.194-1.733-1.194
			c-0.698,0-1.241,0.354-1.629,1.061C134.146,177.191,133.953,178.402,133.953,180.116z"/>
		<path fill="#2B3990" d="M149.133,183.612c0-0.418-0.133-0.771-0.402-1.06c-0.268-0.289-0.613-0.559-1.031-0.808
			c-0.418-0.248-0.861-0.503-1.329-0.762c-0.469-0.26-0.912-0.577-1.33-0.957c-0.419-0.378-0.763-0.837-1.032-1.375
			c-0.269-0.537-0.402-1.215-0.402-2.032c0-1.394,0.378-2.47,1.136-3.227c0.757-0.758,1.873-1.138,3.347-1.138
			c0.877,0,1.703,0.097,2.481,0.285c0.776,0.189,1.394,0.423,1.853,0.703l-0.837,2.749c-0.38-0.158-0.836-0.313-1.376-0.464
			c-0.538-0.148-1.065-0.224-1.583-0.224c-0.977,0-1.464,0.409-1.464,1.227c0,0.378,0.134,0.691,0.402,0.94
			c0.27,0.249,0.613,0.493,1.031,0.733c0.419,0.238,0.862,0.486,1.331,0.746c0.468,0.259,0.911,0.583,1.329,0.971
			c0.418,0.39,0.762,0.862,1.031,1.421c0.27,0.557,0.402,1.245,0.402,2.061c0,1.376-0.417,2.48-1.254,3.317
			s-2.083,1.256-3.736,1.256c-0.817,0-1.619-0.1-2.405-0.299c-0.787-0.199-1.419-0.459-1.897-0.778l0.985-2.868
			c0.418,0.239,0.902,0.449,1.45,0.629c0.547,0.179,1.121,0.269,1.719,0.269c0.457,0,0.836-0.105,1.136-0.314
			C148.985,184.406,149.133,184.071,149.133,183.612z"/>
		<path fill="#2B3990" d="M161.985,187.588v-9.025c0-1.076-0.125-1.853-0.374-2.332c-0.25-0.479-0.702-0.718-1.361-0.718
			c-0.478,0-0.916,0.17-1.314,0.509c-0.398,0.34-0.667,0.768-0.806,1.286v10.28h-3.557v-20.921h3.557v7.323h0.089
			c0.398-0.519,0.883-0.937,1.45-1.255c0.567-0.32,1.279-0.48,2.138-0.48c0.616,0,1.154,0.091,1.613,0.271
			c0.457,0.18,0.846,0.479,1.165,0.896c0.319,0.419,0.559,0.981,0.718,1.688c0.158,0.708,0.239,1.6,0.239,2.676v9.802H161.985z"/>
		<path fill="#2B3990" d="M167.454,180.116c0-2.648,0.517-4.622,1.554-5.918c1.036-1.295,2.48-1.943,4.333-1.943
			c1.992,0,3.477,0.659,4.454,1.975c0.975,1.314,1.464,3.276,1.464,5.887c0,2.67-0.519,4.647-1.555,5.934
			c-1.036,1.284-2.491,1.927-4.363,1.927C169.415,187.977,167.454,185.357,167.454,180.116z M171.13,180.116
			c0,1.494,0.169,2.65,0.507,3.467c0.34,0.816,0.907,1.226,1.704,1.226c0.758,0,1.319-0.353,1.689-1.061
			c0.368-0.708,0.553-1.918,0.553-3.632c0-1.534-0.17-2.698-0.509-3.497c-0.339-0.796-0.915-1.194-1.733-1.194
			c-0.697,0-1.24,0.354-1.629,1.061C171.323,177.191,171.13,178.402,171.13,180.116z"/>
		<path fill="#2B3990" d="M181.291,172.645h2.66l0.357,1.704h0.09c0.459-0.718,0.972-1.241,1.539-1.569
			c0.567-0.329,1.27-0.493,2.108-0.493c1.513,0,2.654,0.573,3.421,1.718c0.767,1.146,1.151,3.055,1.151,5.724
			c0,2.671-0.479,4.718-1.437,6.143c-0.955,1.425-2.34,2.136-4.154,2.136c-0.478,0-0.887-0.04-1.224-0.119
			c-0.339-0.079-0.658-0.209-0.956-0.39v6.068h-3.557V172.645z M184.848,184.241c0.198,0.199,0.422,0.349,0.671,0.448
			c0.25,0.1,0.572,0.149,0.971,0.149c0.799,0,1.405-0.394,1.824-1.182c0.418-0.786,0.628-2.126,0.628-4.019
			c0-1.415-0.16-2.466-0.478-3.153c-0.32-0.688-0.848-1.031-1.585-1.031c-0.996,0-1.673,0.588-2.031,1.763V184.241z"/>
	</g>
</g>
</svg>
