<?xml version="1.0" encoding="utf-8"?>
<!-- Generator: Adobe Illustrator 16.0.0, SVG Export Plug-In . SVG Version: 6.00 Build 0)  -->
<!DOCTYPE svg PUBLIC "-//W3C//DTD SVG 1.1//EN" "http://www.w3.org/Graphics/SVG/1.1/DTD/svg11.dtd">
<svg version="1.1" id="Layer_1" xmlns="http://www.w3.org/2000/svg" xmlns:xlink="http://www.w3.org/1999/xlink" x="0px" y="0px"
	 width="250px" height="154.449px" viewBox="0 0 250 154.449" enable-background="new 0 0 250 154.449" xml:space="preserve">
<g>
	<g>
		<path fill="#FFFFFF" d="M143.362,102.251c0.472,1.098,0.472,1.098,0.472,1.098s0.552,0.572,1.329-0.918
			c0.282-0.543,0.652-1.029,1.007-1.434c-0.425-1.182-0.828-1.732-0.828-1.732s-0.94-0.4-1.127-3.215l-3.666,3.602
			C140.549,99.652,142.893,101.156,143.362,102.251z"/>
		<path fill="#FFFFFF" d="M177.322,31.517c0.703,0.718,1.931,2.155,4.09,2.396c2.157,0.242,4.848-3.118,4.848-3.118
			s3.065,3.118,5.944,3.599c2.879,0.477,4.076-4.076,4.076-4.076s2.396,0,3.598,0c1.199,0,2.396-1.201,1.917-3.335
			c-0.48-2.136-6.714-0.743-6.714-0.743s0,0,0-2.398s-3.118-3.835-4.796-3.597c-1.679,0.241-4.025,3.597-4.025,3.597
			c-3.786-3.356-7.007-3.835-8.938-3.622c-1.937,0.213,0,4.582,0,4.582s-2.863,0.24-4.303-0.959
			c-1.438-1.199-3.597-0.239-2.877,3.484C170.861,31.043,175.658,32.233,177.322,31.517z"/>
		<path fill="#FFFFFF" d="M157.029,62.498c-1.416-1.078-2.697-2.43-2.967-1.585c-0.271,0.845,0.067,3.245-0.743,3.797
			c-0.808,0.554-2.225,1.406-1.752,1.959c0.472,0.55,3.237,1.833,3.237,1.833s3.575,1.416,4.857,0.944
			c1.28-0.471,2.571-2.809,1.617-3.575C161.279,65.871,158.443,63.574,157.029,62.498z"/>
		<path fill="#FFB819" d="M145.915,51.1c0,0,1.809,2.361,3.225,2.966c1.415,0.607,2.63,1.013,3.372,0.945
			c0.739-0.068,1.347,0.287,1.415-0.464c0.067-0.75-1.956-2.153-2.631-2.632C150.623,51.436,143.707,49.617,145.915,51.1z"/>
		<path fill="#CF0A2C" d="M152.981,57.709c0,0-1.55-0.474-2.899-0.945c-1.349-0.471-2.968-1.62-3.507-2.159
			c-0.539-0.54-2.091-2.159-2.091-2.159s-1.684,4.721-2.429,6.071c-0.743,1.35-2.899,5.841-3.035,6.26
			c-0.134,0.418-0.472,0.622,0.473,1.093c0.944,0.472,7.417,2.562,7.891,2.293s0.811-0.675,0.811-0.675s3.306-3.914,3.575-5.192
			C152.039,61.014,152.981,57.709,152.981,57.709z"/>
		<path fill="#CF0A2C" d="M191.983,99.408c0,0-15.476,1.271-20.755,4.664c-0.326,0.209-0.695,0.447-1.068,0.693
			c-1.782,1.766-4.205,4.465-5.66,5.789c-2.469,2.24,0,22.986,0,22.986l0.984,5.938c0,0,3.603,0.635,2.379,1.697
			c-1.224,1.059-1.321,1.693-1.321,1.693h5.022c0,0,62.822-1.061,66.003-1.693c3.179-0.639,5.512-5.092,5.512-5.092l-1.055-18.508
			c0,0,0.208-5.66,0-7.742c-0.207-2.08-1.911-3.887-1.911-3.887l-0.214-20.109V55.731c0,0,1.908-6.359,2.12-7.827
			c0.213-1.465-6.784-5.318-9.329-6.235c-2.546-0.92-5.512,1.978-8.269,1.919c-2.754-0.061,0,4.744,0,4.744
			s-0.848,35.386-1.544,37.718c-0.192,0.643-0.418,1.598-0.646,2.637l-0.181,6.984L191.983,99.408z M210.479,128.72
			c-2.966,0.199-4.919-3.811-4.919-3.811s-22.501,0.225-26.258,0.363c-3.76,0.137-1.164-3.945,1.719-4.016
			c2.881-0.07,25.801-2.682,25.801-2.682c0.665-1.508,1.686-2.123,4.566-1.383c2.875,0.742,3.71,3.428,4.443,6.318
			C216.562,126.4,213.441,128.515,210.479,128.72z"/>
		<path fill="#FFFFFF" d="M175.42,63.207c-0.95,0.33-2.865-1.11,2.725-2.3c6.294-1.344,9.284,0.807,9.284,0.807
			s2.563,0.862,0.733,1.707c-3.839-0.517-6.063-1.062-6.177-0.012l-0.749,6.88c2.747-0.639,6.145-2.242,9.501-5.283
			c7.561-5.213,8.612-20.344,8.612-20.344h0.885c0,0,1.052,1.292,4.953,1.467c3.9,0.175,4.364-4.572,3.837-8.13
			c-0.526-3.558-6.032-3.878-6.032-3.878l-1.546-0.168c-1.208,0.275-2.541,0.287-3.728,0.202c-1.68,4.313-8.871,4.074-11.75-0.242
			c-3.837,4.797-7.476,1.919-7.476,1.919s-3.714,0.835-6.606-2.057c-0.717-0.064-3.245-0.259-4.923,0.019
			c-1.967,0.322-5.419,4.599-3.837,8.643c1.582,4.044,6.507,3.166,6.507,3.166s0.528,3.514,0.883,9.527
			c0.351,6.013,3.512,13.509,5.444,14.887c0.51,0.362,1.341,0.579,2.395,0.605l0.713-8.173
			C179.068,62.449,177.038,62.304,175.42,63.207z M203.318,37.392l2.631,0.396l1.501,1.499l-0.364,1.938l-1.714,1.361l-4.319,0.411
			l0.109-1.704l-0.419-2.379L203.318,37.392z M188.102,41.311c1.228-0.482,4.042-0.75,4.744,1.056
			c0.705,1.804,0.047,3.209-1.646,4.265c0,0-2.573,0.004-3.805-0.875C186.163,44.875,186.876,41.794,188.102,41.311z
			 M170.571,40.744l-0.706,2.845l-2.934-1.186l-2.364-1.995l-0.067-2.281l1.642-1.386l2.552,0.42l2.535,1.884L170.571,40.744z
			 M174.356,43.985c0.685-1.122,2.761-3.043,4.412-2.033c1.653,1.011,1.983,2.526,1.274,4.393c0,0-2.047,1.559-3.558,1.603
			C174.974,47.997,173.672,45.112,174.356,43.985z"/>
		<path fill="#FFFFFF" d="M151.232,110.15c0.029,1.242,0.083,2.74,0.181,4.135c0.221,3.111,7.146,0.928,7.146,0.928l0.109-5.451
			l-6.314,0.793L151.232,110.15z"/>
		<path fill="#FFFFFF" d="M148.897,115.083c-0.024-0.037-0.055-0.076-0.077-0.117C148.847,115.007,148.864,115.046,148.897,115.083z
			"/>
		<path fill="#FFFFFF" d="M152.71,108.746c1.925,0.01,4.617-1.037,5.267-1.064c0.211-0.008,0.349-0.059,0.45-0.127
			c-0.172-0.822-0.454-1.828-0.937-2.795c-1.069-2.139,0.354-2.617,0.354-2.617c1.069,0,4.991,2.496,4.991,2.496l1.665,0.713
			c0,0,0.592-1.068,6.729-6.057c6.134-4.99,47.798-8.316,47.798-8.316s1.425-23.048,1.425-26.255s-3.991-5.061-3.991-5.061
			l-0.809-2.302c0,0,1.12-1.071,1.833-2.259c0.712-1.188-3.887-2.711-6.932-1.344c0.23-1.748-2.393-4.463-3.772-5.758
			c-2.417,0.126-5.843-0.287-5.843-0.287s-0.912,16.986-12.836,22.657c-10.321,4.898-13.719,1.222-13.719,1.222
			s-0.247-0.266-0.631-0.813c-0.851,0.419-2.001,0.796-3.075,0.479c-1.278-0.375-5.53,1.614-6.177,3.682
			c-2.101-2.068-6.324,0.586-4.772,3.496c-5.901-3.703-8.377,3.297-7.402,6.217c-4.93-1.645-5.288,6.326-5.288,6.326
			c-2.625,5.248,0.145,7.352,0.411,7.93c0.282,0.613,0.282,0.613,0.894,2.406c0.827,2.418,2.613,4.633,2.613,4.633
			S151.752,108.742,152.71,108.746z M172.196,80.333c0.718-0.895,6.686-0.982,7.459-1.043c0.776-0.061,5.399-0.895,5.82-1.132
			c0.414-0.239,0.296-1.821,0.296-1.821c0.143-1.624,1.104,0.06,1.254,1.582c0.15,1.52-5.37,2.448-7.429,2.745
			c-2.06,0.299-0.134,6.574-0.225,7.619c0.687-0.148,14.048-3.41,14.465-4.066c0.419-0.656,1.152-6.09,2.078-8.296
			c0.924-2.206,1.729,0,1.729,0s-0.863,4.148-1.193,6.98c-0.328,2.836-1.908,3.521-4.532,4.924
			c-2.627,1.404-9.904,2.475-10.056,2.535c-0.148,0.061-4.234,0.686-6.323,1.105c-2.089,0.418-3.073-3.014-3.134-3.912
			c-0.059-0.893-0.654-3.34-0.774-4.264C171.51,82.365,171.481,81.23,172.196,80.333z"/>
		<path fill="#FFFFFF" d="M171.229,68.096c0.707-0.068,0-0.675,0-0.675l-2.126-1.489l-1.237-1.208c0,0-0.447-0.134-1.73,0.473
			c-1.28,0.609-2.898,1.957-2.898,1.957c-1.269,0.961-0.354,2.902-0.354,2.902c1.728-0.411,3.445-0.683,4.947-0.866l0.034-0.005
			C167.863,69.184,170.52,68.164,171.229,68.096z"/>
		<path fill="#FFB819" d="M210.759,119.015c-2.261-0.582-3.284,0.852-3.809,2.037c0,0-21.94,1.777-24.205,1.832
			c-2.267,0.061-3.256,1.252-0.304,1.145c2.953-0.107,23.057-0.74,23.057-0.74s2.021,3.869,4.35,3.711
			c2.331-0.156,4.782-1.82,4.209-4.09C213.479,120.642,213.021,119.597,210.759,119.015z"/>
		<path fill="#010101" d="M173.68,33.775l-1.584,0.019c0,0-0.084-0.007-0.209-0.019c2.893,2.892,6.606,2.057,6.606,2.057
			s3.639,2.877,7.476-1.919c2.879,4.316,10.07,4.555,11.75,0.242c1.187,0.084,2.52,0.073,3.728-0.202l-2.798-0.301l3.513-1.177
			l1.902,0.107c0.8-0.846,1.258-2.097,1.09-3.944c-0.48-5.275-2.64-5.515-6.477-6.473c0,0-2.396-5.275-6.953-5.277
			c-4.556,0-7.435,2.636-7.435,2.636s-2.157-2.393-4.315-2.636c-2.157-0.237-5.515-0.961-6.714,3.356
			c-2.534,0-9.456,1.791-3.626,10.43l1.586,0.086L173.68,33.775z M173.02,23.841c1.439,1.199,4.303,0.959,4.303,0.959
			s-1.937-4.368,0-4.582c1.931-0.213,5.151,0.266,8.938,3.622c0,0,2.347-3.356,4.025-3.597c1.678-0.238,4.796,1.199,4.796,3.597
			s0,2.398,0,2.398s6.233-1.394,6.714,0.743c0.479,2.134-0.718,3.335-1.917,3.335c-1.201,0-3.598,0-3.598,0
			s-1.197,4.553-4.076,4.076c-2.879-0.481-5.944-3.599-5.944-3.599s-2.69,3.36-4.848,3.118c-2.159-0.241-3.387-1.678-4.09-2.396
			c-1.664,0.716-6.461-0.474-7.18-4.191C169.423,23.602,171.581,22.642,173.02,23.841z"/>
		<path fill="#010101" d="M201.446,33.952l1.546,0.168c0,0,5.506,0.321,6.032,3.878c0.527,3.558,0.063,8.305-3.837,8.13
			c-3.901-0.175-4.953-1.467-4.953-1.467h-0.885c0,0-1.052,15.13-8.612,20.344c-3.356,3.041-6.754,4.644-9.501,5.283l-0.16,1.473
			c0.164,0.008,0.33,0.017,0.486,0.013c1.275-0.56,4.402-1.638,7.682-3.78c-0.596,0.54-1.193,1.083-1.84,1.642
			c-2.619,2.269-5.057,2.832-7.068,2.679l-0.764,0.557l-1.401-0.123l0.075-0.868c-1.989-0.681-3.22-1.868-3.226-1.874l-0.002-0.002
			c-0.002,0.002-0.521,0.404-1.267,0.773c0.384,0.547,0.631,0.813,0.631,0.813s3.397,3.676,13.719-1.222
			c11.924-5.671,12.836-22.657,12.836-22.657s3.426,0.413,5.843,0.287c-0.484-0.457-0.82-0.739-0.82-0.739l-3.382-0.405
			c1.694-0.781,3.568-0.268,4.872-0.223c0.646,0.024,1.342,0.226,1.992,0.551c1.839-1.405,4.152-5.076,3.109-10.13
			c-1.224-5.913-7.966-4.442-7.966-4.442l-0.522-0.028C203.387,33.298,202.465,33.722,201.446,33.952z"/>
		<path fill="#010101" d="M174.17,69.619h-0.002c0.261,0.125,0.545,0.252,0.851,0.386l0,0l0.002,0.002
			c0.967,0.424,2.121,0.878,3.282,1.222l0.053-0.607c-1.054-0.026-1.885-0.243-2.395-0.605c-1.933-1.378-5.094-8.875-5.444-14.887
			c-0.354-6.013-0.883-9.527-0.883-9.527s-4.925,0.878-6.507-3.166c-1.582-4.044,1.87-8.321,3.837-8.643
			c1.678-0.277,4.206-0.083,4.923-0.019c-0.539-0.54-1.054-1.194-1.506-2.023c-0.283-0.379-0.508-0.724-0.747-1.078l-0.511-0.028
			c0,0-6.874,1.24-8.456,5.688c-1.582,4.45,0.527,11.026,7.737,11.026c-0.022,6.65,0.8,11.701,1.841,15.428
			c0.239,0.062,0.41,0.115,0.41,0.115L174.17,69.619z"/>
		<path fill="#010101" d="M171.887,33.775c0.125,0.011,0.209,0.019,0.209,0.019l1.584-0.019l-2.46-3.015l-1.586-0.086
			c0.239,0.354,0.464,0.699,0.747,1.078C170.833,32.582,171.348,33.236,171.887,33.775z"/>
		<path fill="#010101" d="M198.648,33.651l2.798,0.301c1.019-0.23,1.94-0.654,2.617-1.371l-1.902-0.107L198.648,33.651z"/>
		<path fill="#010101" d="M181.985,63.408c0.113-1.05,2.338-0.505,6.177,0.012c1.83-0.845-0.733-1.707-0.733-1.707
			s-2.99-2.151-9.284-0.807c-5.59,1.19-3.675,2.63-2.725,2.3c1.618-0.903,3.648-0.758,3.648-0.758l-0.713,8.173
			c0.832,0.021,1.807-0.085,2.881-0.334L181.985,63.408z"/>
		<path fill="#010101" d="M178.171,72.749l1.401,0.123l0.764-0.557c-0.766-0.058-1.464-0.22-2.09-0.434L178.171,72.749z"/>
		<path fill="#010101" d="M181.236,70.288c-1.074,0.249-2.049,0.354-2.881,0.334l-0.053,0.607c0.96,0.285,1.916,0.488,2.773,0.532
			L181.236,70.288z"/>
		<path fill="#010101" d="M191.199,46.632c1.693-1.056,2.352-2.46,1.646-4.265c-0.702-1.807-3.517-1.539-4.744-1.056
			c-1.226,0.483-1.938,3.563-0.707,4.446C188.626,46.636,191.199,46.632,191.199,46.632z"/>
		<path fill="#010101" d="M176.485,47.948c1.511-0.043,3.558-1.603,3.558-1.603c0.709-1.867,0.379-3.382-1.274-4.393
			c-1.651-1.011-3.728,0.911-4.412,2.033C173.672,45.112,174.974,47.997,176.485,47.948z"/>
		<polygon fill="#010101" points="201.053,42.997 205.372,42.586 207.086,41.225 207.45,39.286 205.949,37.787 203.318,37.392 
			200.743,38.913 201.162,41.292 		"/>
		<polygon fill="#010101" points="166.142,36.741 164.5,38.127 164.567,40.408 166.932,42.403 169.865,43.589 170.571,40.744 
			171.229,39.045 168.693,37.161 		"/>
		<path fill="#010101" d="M146.17,100.998c-0.354,0.404-0.725,0.891-1.007,1.434c-0.777,1.49-1.329,0.918-1.329,0.918
			s0,0-0.472-1.098c-0.47-1.096-2.813-2.6-2.813-2.6l3.666-3.602c-0.052-0.789-0.04-1.779,0.063-2.996l-0.76,1.799
			c0,0-1.974,1.244-3.614,2.76c-1.639,1.514-4.323,4.85-4.323,4.85c-0.253,1.574,2.658,5.268,3.952,6.604
			c1.293,1.334,2.281,0.523,2.281,0.523l2.062-2.145l0.857-0.619c0,0,0.385-0.453,0.445-0.787c0.062-0.352,0.279-1.086,1.233-2.008
			c0.207-0.201,0.403-0.445,0.59-0.703c-0.213-0.484-0.413-0.988-0.567-1.537C146.349,101.482,146.26,101.246,146.17,100.998z"/>
		<path fill="#010101" d="M150.374,116.617c-0.688-0.535-1.157-1.023-1.477-1.533c-0.033-0.037-0.051-0.076-0.077-0.117
			c-0.045-0.08-0.085-0.164-0.122-0.25c-0.006,0.008-1.521,2.646-1.307,3.953c0.215,1.309,5.264,5.051,7.321,4.676
			c1.712-0.312,3.831-4.219,4.496-5.525l0.057-0.418C157.175,117.587,152.022,117.9,150.374,116.617z"/>
		<path fill="#010101" d="M158.427,107.554c-0.102,0.068-0.239,0.119-0.45,0.127c-0.649,0.027-3.342,1.074-5.267,1.064
			c-0.958-0.004-1.755-2.799-1.755-2.799l0.239,1.543c0,0,0.002,1.135,0.038,2.66l1.121,0.404l6.314-0.793l0.01-0.488
			C158.678,109.273,158.636,108.548,158.427,107.554z"/>
		<path fill="#010101" d="M172.405,87.552c0.061,0.898,1.045,4.33,3.134,3.912c2.089-0.42,6.175-1.045,6.323-1.105
			c0.151-0.061,7.429-1.131,10.056-2.535c2.624-1.402,4.204-2.088,4.532-4.924c0.33-2.832,1.193-6.98,1.193-6.98
			s-0.805-2.206-1.729,0c-0.926,2.206-1.659,7.64-2.078,8.296c-0.417,0.656-13.778,3.918-14.465,4.066
			c0.091-1.045-1.835-7.32,0.225-7.619c2.059-0.297,7.579-1.225,7.429-2.745c-0.149-1.522-1.111-3.206-1.254-1.582
			c0,0,0.118,1.582-0.296,1.821c-0.421,0.238-5.044,1.072-5.82,1.132c-0.773,0.061-6.741,0.148-7.459,1.043
			c-0.715,0.896-0.687,2.031-0.565,2.955C171.751,84.212,172.347,86.66,172.405,87.552z"/>
		<path fill="#010101" d="M163.236,67.153c0,0,1.618-1.348,2.898-1.957c1.283-0.607,1.73-0.473,1.73-0.473l1.237,1.208l2.126,1.489
			c0,0,0.707,0.607,0,0.675c-0.709,0.068-3.365,1.088-3.365,1.088l-0.034,0.005c2.732-0.332,4.746-0.362,4.746-0.362
			s0.006,0.002,0.006,0.004c-0.741-1.405-1.592-3.379-2.336-6.043c-1.094-0.283-4.339-0.862-6.942,1.463
			c-2.36-2.36-5.194-2.969-6.205-3.71c-1.011-0.741-1.819-1.482-1.819-1.482s1.51-3.714,0.417-5.466
			c-1.094-1.753-1.768-3.912-7.231-4.923c-5.464-1.012-5.462,0.473-5.663,1.486c-0.204,1.011-6.006,14.095-6.006,14.095
			s-1.688,2.023,0.875,3.373c2.564,1.35,3.98,0.807,4.588,1.282c0.608,0.471,3.438,1.887,3.438,1.887s1.485,1.352,2.7,0.743
			c1.212-0.609,2.227-1.282,2.227-1.688c0-0.404,0.539-1.079,1.416-0.2c0.877,0.875,4.331,2.696,4.331,2.696l1.499,0.586
			c1.52-1.497,3.813-2.592,5.013-2.877C162.882,70.055,161.968,68.114,163.236,67.153z M151.296,51.915
			c0.675,0.479,2.698,1.881,2.631,2.632c-0.068,0.75-0.676,0.396-1.415,0.464c-0.742,0.068-1.957-0.337-3.372-0.945
			c-1.416-0.605-3.225-2.966-3.225-2.966C143.707,49.617,150.623,51.436,151.296,51.915z M148.194,67.488
			c0,0-0.337,0.406-0.811,0.675s-6.946-1.821-7.891-2.293c-0.944-0.471-0.606-0.675-0.473-1.093c0.136-0.419,2.292-4.91,3.035-6.26
			c0.745-1.35,2.429-6.071,2.429-6.071s1.552,1.62,2.091,2.159c0.539,0.539,2.158,1.688,3.507,2.159
			c1.35,0.471,2.899,0.945,2.899,0.945s-0.942,3.305-1.212,4.587C151.5,63.574,148.194,67.488,148.194,67.488z M159.662,69.445
			c-1.282,0.472-4.857-0.944-4.857-0.944s-2.766-1.282-3.237-1.833c-0.473-0.553,0.944-1.405,1.752-1.959
			c0.811-0.553,0.472-2.953,0.743-3.797c0.27-0.845,1.551,0.507,2.967,1.585c1.414,1.077,4.25,3.373,4.25,3.373
			C162.233,66.636,160.942,68.974,159.662,69.445z"/>
		<path fill="#010101" d="M174.168,69.619h0.002l-3.515-6.716c0,0-0.171-0.053-0.41-0.115c0.744,2.664,1.595,4.638,2.336,6.043
			C172.6,68.84,173.222,69.178,174.168,69.619z"/>
		<path fill="#010101" d="M246.143,107.818c-1.438-3.492-2.261-4.07-2.261-6.762c0-2.688-0.205-12.139-0.205-12.139
			s-1.026-24.646-0.206-26.904c0.822-2.259,1.645-6.369,0.822-7.395c-0.822-1.026,0.822-2.839,0.822-2.839s3.9-3.747-4.726-11.546
			c-8.625-7.798-16.021-1.84-16.021-1.84l-3.286,1.772c0,0-1.438,2.387-0.616,6.467c0.82,4.078,0.843,14.963,0.843,14.997
			c0.873,1.131,1.568,2.172,1.568,2.172l-0.646,24.886c0.229-1.039,0.454-1.994,0.646-2.637c0.696-2.332,1.544-37.718,1.544-37.718
			s-2.754-4.804,0-4.744c2.757,0.059,5.723-2.839,8.269-1.919c2.545,0.917,9.542,4.77,9.329,6.235
			c-0.212,1.467-2.12,7.827-2.12,7.827v30.106l0.214,20.109c0,0,1.704,1.807,1.911,3.887c0.208,2.082,0,7.742,0,7.742l1.055,18.508
			c0,0-2.333,4.453-5.512,5.092c-3.181,0.633-66.003,1.693-66.003,1.693h-5.022c0,0,0.098-0.635,1.321-1.693
			c1.224-1.062-2.379-1.697-2.379-1.697l-0.984-5.938c0,0-2.469-20.746,0-22.986c1.455-1.324,3.878-4.023,5.66-5.789
			c-0.658,0.439-1.32,0.918-1.731,1.398l-3.929,0.49h-2.313c0,0,0.217,1.402-1.013,0.244c-1.231-1.158-0.583-0.316-0.121,1.305
			c0.464,1.621-0.882,1.232-0.882,1.232v5.793v2.082c0,0-0.283,0.035-0.751,0.078h0.004c0,0-0.081,0.168-0.215,0.432l-2.826,20.807
			c0,0-0.286,2.465,1.809,3.285c2.095,0.822,4.354,1.643,4.354,1.643l-2.374,1.232c0,0,0.32,2.67,2.374,2.467
			c2.053-0.205,66.548,0,72.3-1.232c5.751-1.234,11.707-2.057,11.707-9.654c0-7.6-1.437-21.652-1.437-21.652
			S247.579,111.308,246.143,107.818z"/>
		<path fill="#010101" d="M159.42,117.388c-0.045,0.004-0.104,0.01-0.154,0.014l-0.057,0.418c0.134-0.264,0.215-0.432,0.215-0.432
			H159.42z"/>
		<path fill="#010101" d="M148.82,114.966c0.022,0.041,0.053,0.08,0.077,0.117c1.353,1.5,9.205,2.197,10.372,2.291l0.154-1.137
			c0.515-1.465,0.338-4.096-0.017-6.57l-0.739,0.094l-0.109,5.451c0,0-6.925,2.184-7.146-0.928
			c-0.098-1.395-0.151-2.893-0.181-4.135l-1.45-0.521l1.173-3.682c0,0-1.786-2.215-2.613-4.633
			c-0.611-1.793-0.611-1.793-0.894-2.406c-0.267-0.578-3.036-2.682-0.411-7.93c0,0,0.358-7.971,5.288-6.326
			c-0.975-2.92,1.501-9.919,7.402-6.217c-1.552-2.909,2.672-5.563,4.772-3.496c0.646-2.068,4.898-4.057,6.177-3.682
			c1.074,0.317,2.225-0.06,3.075-0.479c-0.172-0.247-0.374-0.558-0.596-0.926c-0.557,0.019-2.793,0.108-3.851,0.402
			c-1.212,0.337-10.049,3.237-10.049,3.237l-1.316-0.532l-0.071-0.028c-0.923,0.907-1.56,1.959-1.499,3.071
			c-4.601-0.021-7.755,4.319-6.588,7.215c-3.477,0.693-4.736,2.82-5.432,9.076c-0.03,0.268-0.05,0.514-0.072,0.76l0.328-0.771
			l1.135,2.27l-1.526,1.498c0.187,2.814,1.127,3.215,1.127,3.215s0.403,0.551,0.828,1.732c0.622-0.705,1.201-1.148,1.201-1.148
			l0.193-0.318l0.604,1.764c0,0-0.492,1.107-1.165,2.033c1.001,2.281,2.441,3.789,2.441,3.789s0,1.16-0.691,3.939
			c-0.411,1.645-0.484,2.717-0.055,3.66v-0.002C148.711,114.802,148.766,114.884,148.82,114.966z"/>
		<path fill="#010101" d="M167.829,69.189c-1.502,0.183-3.22,0.455-4.947,0.866L167.829,69.189z"/>
		<path fill="#010101" d="M206.78,47.999c1.38,1.295,4.003,4.01,3.772,5.758c3.045-1.367,7.644,0.157,6.932,1.344
			c-0.713,1.188-1.833,2.259-1.833,2.259l0.809,2.302c0,0,3.991,1.854,3.991,5.061s-1.425,26.255-1.425,26.255
			s-41.664,3.326-47.798,8.316c-6.137,4.988-6.729,6.057-6.729,6.057l-1.665-0.713c0,0-3.922-2.496-4.991-2.496
			c0,0-1.423,0.479-0.354,2.617c0.482,0.967,0.765,1.973,0.937,2.795c0.368-0.244,0.151-0.754,0.151-0.754l0.612,1.506
			c-0.432-2.527-0.958-4.6-0.958-4.6s3.954,2.947,8.202,1.898c4.245-1.053,3.874-1.689,3.874-1.689l0.617,0.117
			c-0.236,0.217-0.494,0.465-0.766,0.732c0.373-0.246,0.742-0.484,1.068-0.693c5.279-3.393,20.755-4.664,20.755-4.664l30.067-3.736
			l0.181-6.984c-0.598,2.725-1.201,6.055-1.201,6.055l-13.388,1.525l12.208-3.035l1.459-31.6v-0.004
			c-0.364-0.471-0.758-0.958-1.148-1.395c-1.329-1.482-2.474-1.844-2.474-1.844s1.868,0.244,2.564-2.768
			c0.693-3.013-5.596-4.787-8.766-3.842c1.343-1.676-0.15-3.656-2.044-4.597c-0.311,0.235-0.612,0.428-0.876,0.53
			C208.144,47.875,207.506,47.959,206.78,47.999z"/>
		<path fill="#010101" d="M180.336,72.315c2.012,0.153,4.449-0.411,7.068-2.679c0.646-0.56,1.244-1.103,1.84-1.642
			c-3.279,2.142-6.406,3.22-7.682,3.78c-0.156,0.004-0.322-0.005-0.486-0.013l-0.002,0.015L180.336,72.315z"/>
		<path fill="#010101" d="M178.303,71.229c-1.161-0.343-2.315-0.797-3.282-1.222c0.006,0.006,1.236,1.193,3.226,1.874
			L178.303,71.229z"/>
		<path fill="#010101" d="M202.578,46.854l3.382,0.405c0,0,0.336,0.283,0.82,0.739c0.726-0.04,1.363-0.125,1.786-0.287
			c0.264-0.102,0.565-0.294,0.876-0.53c-0.65-0.325-1.346-0.526-1.992-0.551C206.146,46.586,204.272,46.074,202.578,46.854z"/>
		<path fill="#010101" d="M174.168,69.619l-0.882,0.23c0,0-0.048,0.002-0.13,0.003c0.222,0.368,0.424,0.679,0.596,0.926
			c0.746-0.369,1.265-0.771,1.267-0.773C174.713,69.872,174.429,69.744,174.168,69.619z"/>
		<polygon fill="#010101" points="175.019,70.005 175.019,70.005 175.021,70.007 		"/>
		<path fill="#010101" d="M180.336,72.315l0.738-0.539l0.002-0.015c-0.857-0.043-1.813-0.247-2.773-0.532l-0.057,0.652
			C178.872,72.095,179.57,72.257,180.336,72.315z"/>
		<path fill="#010101" d="M144.215,96.05l1.526-1.498l-1.135-2.27l-0.328,0.771C144.175,94.271,144.163,95.261,144.215,96.05z"/>
		<path fill="#010101" d="M147.564,99.531l-0.193,0.318c0,0-0.579,0.443-1.201,1.148c0.09,0.248,0.179,0.484,0.266,0.793
			c0.154,0.549,0.354,1.053,0.567,1.537c0.673-0.926,1.165-2.033,1.165-2.033L147.564,99.531z"/>
		<path fill="#010101" d="M148.897,115.083c0.319,0.51,0.788,0.998,1.477,1.533c1.648,1.283,6.801,0.971,8.892,0.785l0.004-0.027
			C158.103,117.281,150.25,116.583,148.897,115.083z"/>
		<path fill="#010101" d="M148.698,114.714v0.002c0.037,0.086,0.077,0.17,0.122,0.25
			C148.766,114.884,148.711,114.802,148.698,114.714z"/>
		<path fill="#010101" d="M158.578,106.8c0,0,0.217,0.51-0.151,0.754c0.209,0.994,0.251,1.719,0.251,1.719l-0.01,0.488l0.739-0.094
			c-0.067-0.465-0.142-0.916-0.217-1.361L158.578,106.8z"/>
		<path fill="#010101" d="M150.955,105.947l-1.173,3.682l1.45,0.521c-0.036-1.525-0.038-2.66-0.038-2.66L150.955,105.947z"/>
		<path fill="#010101" d="M159.257,73.492c0,0,8.837-2.9,10.049-3.237c1.058-0.294,3.294-0.383,3.851-0.402
			c-0.182-0.299-0.372-0.637-0.575-1.021c0-0.002-0.006-0.004-0.006-0.004s-2.014,0.03-4.746,0.362l-4.947,0.866
			c-1.199,0.285-3.493,1.38-5.013,2.877l0.071,0.028L159.257,73.492z"/>
		<path fill="#010101" d="M174.168,69.619c-0.946-0.441-1.568-0.779-1.587-0.788c0.203,0.384,0.394,0.722,0.575,1.021
			c0.082-0.001,0.13-0.003,0.13-0.003L174.168,69.619z"/>
		<path fill="#010101" d="M219.851,93.232l-12.208,3.035l13.388-1.525c0,0,0.604-3.33,1.201-6.055l0.646-24.886
			c0,0-0.695-1.041-1.568-2.172v0.004L219.851,93.232z"/>
		<path fill="#010101" d="M170.926,104.033l-0.617-0.117c0,0,0.371,0.637-3.874,1.689c-4.248,1.049-8.202-1.898-8.202-1.898
			s0.526,2.072,0.958,4.6l0.537,1.322l-0.32,0.039c0.354,2.475,0.531,5.105,0.017,6.57l-0.154,1.137
			c0.093,0.008,0.149,0.014,0.149,0.014c0.469-0.043,0.752-0.078,0.752-0.078v-2.082v-5.793c0,0,1.346,0.389,0.882-1.232
			c-0.462-1.621-1.11-2.463,0.121-1.305c1.229,1.158,1.013-0.244,1.013-0.244h2.313l3.929-0.49c0.411-0.48,1.073-0.959,1.731-1.398
			C170.432,104.498,170.689,104.25,170.926,104.033z"/>
		<path fill="#010101" d="M159.266,117.402c0.051-0.004,0.109-0.01,0.154-0.014c0,0-0.058-0.006-0.15-0.014L159.266,117.402z"/>
		<path fill="#010101" d="M159.19,108.306c0.075,0.445,0.149,0.896,0.217,1.361l0.32-0.039L159.19,108.306z"/>
		<path fill="#010101" d="M211.389,117.193c-2.881-0.74-3.901-0.125-4.566,1.383c0,0-22.92,2.611-25.801,2.682
			c-2.883,0.07-5.479,4.152-1.719,4.016c3.757-0.139,26.258-0.363,26.258-0.363s1.953,4.01,4.919,3.811
			c2.962-0.205,6.083-2.32,5.353-5.209C215.099,120.621,214.264,117.935,211.389,117.193z M209.848,127
			c-2.328,0.158-4.35-3.711-4.35-3.711s-20.104,0.633-23.057,0.74c-2.952,0.107-1.963-1.084,0.304-1.145
			c2.265-0.055,24.205-1.832,24.205-1.832c0.524-1.186,1.548-2.619,3.809-2.037c2.263,0.582,2.721,1.627,3.298,3.895
			C214.63,125.179,212.179,126.843,209.848,127z"/>
	</g>
	<g>
		<path fill="#FFB819" d="M63.043,84.91C63.041,63.084,62.18,42.9,56.292,38.745c-0.107-0.175-0.209-0.326-0.311-0.468l1.834,68.505
			C59.562,105.621,63.045,101.255,63.043,84.91z"/>
		<path fill="#5AB7B2" d="M10.219,106.482c-0.364,7.113,1.97,6.4,1.97,6.4l8.95,1.684c0,0,29.328-3.293,32.108-3.799
			c2.779-0.502,1.852-4.285,1.852-4.285l-1.852-72.164c0,0,0,0-1.544-2.253c-1.542-2.255-5.866-0.809-5.866-0.809
			s-8.335-0.803-13.273-0.803c-4.939,0-22.446,1.61-22.446,1.61c-2.066,3.219-1.327,4.923-1.327,4.923S10.583,99.373,10.219,106.482
			z"/>
		<path fill="#5AB7B2" d="M30.112,20.619l2.357-3.511c-1.318,0.008-2.93,0.168-4.885,0.581c-7.551,1.597-9.141,7.104-9.456,9.897
			c5.457-0.415,11.326-0.809,13.994-0.809c3.192,0,7.619,0.281,10.872,0.526c-1.139-6.009-5.285-8.89-5.285-8.89
			s-0.786-0.784-2.932-1.135c-1.727,2.615-3.077,4.636-3.077,4.636S30.062,23.117,30.112,20.619z"/>
		<path fill="#5AB7B2" d="M60.907,118.201c0,0,0-2.281-1.521-2.535c-1.52-0.256-3.548,0-5.575,0c-1.067,0-5.924,0.303-11.06,0.773
			c-2.638,0.297-5.43,0.607-8.135,0.906c-1.544,0.217-2.887,0.447-3.871,0.68c-5.322,1.27-22.559,3.295-22.559,3.295
			c-1.267,3.547-0.507,15.461,0,22.305c0.507,6.846,3.803,4.564,3.803,4.564s9.63,0,9.885,0c0.252,0,33.711-0.371,36.498-1.133
			c2.791-0.76,3.295-4.057,2.536-5.83S60.907,118.201,60.907,118.201z"/>
		<path fill="#CF0A2C" d="M8.811,117.197c0,0-0.092,0.025-0.241,0.02c0.294,0.035,0.583,0.076,0.907,0.1L8.811,117.197z"/>
		<path fill="#010101" d="M28.232,15.223c-1.248-2.955-4.54-10.66-5.306-11.68c-0.95-1.265-1.274,1.152-1.274,1.152l4.921,10.847
			c0.026-0.007,0.051-0.015,0.077-0.021C27.201,15.403,27.727,15.306,28.232,15.223z"/>
		<path fill="#010101" d="M65.4,112.443c0-1.773-3.226-2.609-3.226-2.609l-3.43,0.361c1.399-1.469,3.247-3.768,4.527-6.768
			c2.298-5.385,2.298-25.637,1.608-44.825c-0.69-19.181-9.041-25.868-9.048-25.874l-0.045-1.712c0,0,0,0-1.767-2.472
			c-1.765-2.472-6.712-0.886-6.712-0.886s-0.882-0.081-2.258-0.194c-1.199-7.502-6.377-11.084-6.377-11.084
			s-0.695-0.704-2.543-1.162c-0.463,0.709-0.92,1.403-1.352,2.059c2.146,0.351,2.932,1.135,2.932,1.135s4.146,2.881,5.285,8.89
			c-3.252-0.245-7.68-0.526-10.872-0.526c-2.668,0-8.537,0.394-13.994,0.809c0.315-2.792,1.904-8.3,9.456-9.897
			c1.955-0.413,3.567-0.573,4.885-0.581l1.489-2.219c-1.478-0.115-3.351-0.062-5.726,0.334c0.302,0.709,0.486,1.152,0.486,1.152
			s0.434,1.736-1.623,0.317l-0.522-1.15c-9.388,2.025-10.962,9.167-11.197,12.259c-4.929,0.39-8.932,0.743-8.932,0.743
			c-2.368,3.532-1.52,5.402-1.52,5.402s2.047,68.432,1.631,76.232c-0.332,6.254,1.314,6.988,1.981,7.035
			c-0.188-0.023-0.409-0.035-0.586-0.064c-0.008,0.043-0.012,0.072-0.019,0.115c-4.056,0-3.041,3.297-3.041,3.297
			s1.267,21.545,1.267,24.84s1.267,4.814,5.068,5.324c3.801,0.506,19.011-1.016,23.138-1.016c4.127,0,27.303-0.119,29.079-0.627
			c1.774-0.504,2.279-3.293,2.279-3.293s-0.507-3.549-1.52-5.578C63.188,138.183,65.4,114.216,65.4,112.443z M56.292,38.745
			c5.888,4.155,6.75,24.339,6.751,46.165c0.002,16.346-3.48,20.711-5.228,21.873L55.98,38.277
			C56.082,38.419,56.184,38.57,56.292,38.745z M10.119,32.063c0,0,17.506-1.61,22.446-1.61c4.938,0,13.273,0.803,13.273,0.803
			s4.323-1.446,5.866,0.809c1.544,2.253,1.544,2.253,1.544,2.253l1.852,72.164c0,0,0.928,3.783-1.852,4.285
			c-2.781,0.506-32.108,3.799-32.108,3.799l-8.95-1.684c0,0-2.334,0.713-1.97-6.4c0.364-7.109-1.427-69.496-1.427-69.496
			S8.053,35.282,10.119,32.063z M8.811,117.197l0.666,0.119c-0.324-0.023-0.613-0.064-0.907-0.1
			C8.718,117.222,8.811,117.197,8.811,117.197z M58.371,147.056c-2.787,0.762-36.246,1.133-36.498,1.133c-0.255,0-9.885,0-9.885,0
			s-3.296,2.281-3.803-4.564c-0.507-6.844-1.267-18.758,0-22.305c0,0,17.237-2.025,22.559-3.295c0.984-0.232,2.327-0.463,3.871-0.68
			c2.706-0.299,5.498-0.609,8.135-0.906c5.136-0.471,9.993-0.773,11.06-0.773c2.027,0,4.056-0.256,5.575,0
			c1.521,0.254,1.521,2.535,1.521,2.535s-0.76,21.252,0,23.025S61.162,146.296,58.371,147.056z"/>
		<path fill="#010101" d="M28.719,16.375c0,0-0.185-0.443-0.486-1.152c-0.505,0.083-1.031,0.181-1.582,0.298
			c-0.026,0.005-0.051,0.013-0.077,0.021l0.522,1.15C29.152,18.111,28.719,16.375,28.719,16.375z"/>
		<path fill="#010101" d="M30.112,20.619c-0.051,2.498,1.587,1.295,1.587,1.295s1.35-2.021,3.077-4.636
			c-0.645-0.106-1.403-0.175-2.308-0.17L30.112,20.619z"/>
		<path fill="#010101" d="M42.092,5.675c0.532-1.488-1.663-0.428-1.663-0.428l-6.471,9.642c0.849,0.066,1.576,0.181,2.17,0.33
			C38.827,11.105,41.806,6.476,42.092,5.675z"/>
		<path fill="#010101" d="M34.777,17.278c0.432-0.656,0.888-1.35,1.352-2.059c-0.594-0.149-1.321-0.264-2.17-0.33l-1.489,2.219
			C33.374,17.103,34.132,17.172,34.777,17.278z"/>
	</g>
</g>
</svg>
