<?xml version="1.0" encoding="utf-8"?>
<!-- Generator: Adobe Illustrator 16.0.0, SVG Export Plug-In . SVG Version: 6.00 Build 0)  -->
<!DOCTYPE svg PUBLIC "-//W3C//DTD SVG 1.1//EN" "http://www.w3.org/Graphics/SVG/1.1/DTD/svg11.dtd">
<svg version="1.1" id="Layer_1" xmlns="http://www.w3.org/2000/svg" xmlns:xlink="http://www.w3.org/1999/xlink" x="0px" y="0px"
	 width="110px" height="110px" viewBox="0 0 110 110" enable-background="new 0 0 110 110" xml:space="preserve">
<g>
	<polygon fill="#FFB819" points="90.339,102.167 90.638,106.768 95.357,107.086 95.796,102.751 	"/>
	<polygon fill="#FFB819" points="12.597,102.751 12.597,106.768 17.058,107.086 17.68,102.751 	"/>
	<path fill="none" d="M14.186,106.73c1.063,0.119,2.363,0,2.716-0.943c0.185-0.492,0.175-1.146,0.125-1.661l-3.786-0.103v1.883
		C13.242,105.906,13.124,106.613,14.186,106.73z"/>
	<path fill="none" d="M92.484,106.73c1.062,0.119,2.36,0,2.714-0.943c0.227-0.601,0.166-1.439,0.09-1.971
		c-0.373-0.006-0.743-0.01-1.139-0.021c-0.866-0.03-1.738-0.054-2.609-0.077v2.188C91.54,105.906,91.421,106.613,92.484,106.73z"/>
	<path fill="none" d="M66.695,21.829c0.447,0.024,0.893,0.047,1.322,0.069c-0.079-0.007-0.368-0.031-1.336-0.109
		C66.686,21.802,66.69,21.815,66.695,21.829z"/>
	<path fill="#5AB7B2" d="M65.676,21.708c-0.26-1.569-1.724-3.143-3.041-4.336c-1.115,0.677-1.89,1.142-1.89,1.142l-0.308-0.794
		c0,0,0.574-0.399,1.443-1.007c-0.728-0.619-1.311-1.073-1.443-1.271c-0.396-0.591-2.674-1.181-7.633-0.708
		c-1.808,0.172-3.376,1.148-4.646,2.314c1.172,0.189,1.939,0.315,1.939,0.315v0.968c0,0-1.197-0.133-2.883-0.323
		c-1.627,1.814-2.559,3.698-2.559,3.698h2.099c0,0,4.914-0.573,5.684-0.573s5.783-0.194,7.613,0.385c1.359,0,4.071,0.169,6.644,0.31
		c-0.005-0.014-0.01-0.027-0.014-0.04C66.403,21.767,66.078,21.741,65.676,21.708z"/>
	<path fill="#FFFFFF" d="M49.267,78.592v2.199c0,0,1.955-0.121,2.759-0.089c-0.012-0.608-0.069-2.322-0.101-3.255
		c-0.773,0.607-1.735,0.948-2.638,1.131L49.267,78.592z"/>
	<path fill="#FFFFFF" d="M38.92,83.102c0,0,0.643,0.528,1.445,0.528c0.802,0,1.444-0.528,1.444-0.528l0.608-3.566v-0.313
		c-0.98-0.224-2.11-0.838-2.372-0.838c-0.125,0-0.56,0.295-1.126,0.677v1.357V83.102z"/>
	<path fill="#FFFFFF" d="M53.783,64.545l-0.011-0.008c-1.056-0.061-2.453-0.375-4.326-1.264c-6.061-2.884-6.522-11.519-6.522-11.519
		s-2.952,0.358-3.879,0c-0.799-0.307-2.166-1.87-2.147-4.203c-0.616,0.043-4.042,0.365-4.042,2.163c0,1.974,0,1.974,0,1.974h-0.73
		c0,0-1.586-1.95-2.805-0.852c-1.218,1.096-1.707,1.951-1.707,1.951s-0.732-0.732-1.098-0.489c-0.367,0.244-0.974,0.489-0.974,0.489
		s-1.22-1.828-2.318-1.708c-1.097,0.123-4.022,1.587-4.266,2.865c-0.245,1.281-0.977,3.962,0,5.059
		c0.975,1.097,0.975,1.097,0.975,1.097s-3.413-0.342-4.145,1.292c-0.731,1.633-0.243,2.487,0.488,2.851
		c0.732,0.366,2.073,0.61,2.073,0.61l0.73,0.976c0,0-2.194-0.366-2.923,0.974c-0.733,1.343-1.83,4.27,0.12,5
		c1.95,0.731,3.413,0.61,3.413,0.61s-0.245,3.287,1.707,3.654c1.95,0.366,3.414-0.609,3.414-0.609l1.28,0.693
		c0,0,0.304,1.99,1.646,1.746c1.341-0.247,2.316-0.73,2.316-0.73l1.463,0.75c0,0,2.194,3.029,4.51,2.053
		c2.316-0.974,3.046-2.072,3.046-2.072v-1.222h1.689c0,0,1.237,1.829,2.579,1.101c1.341-0.733,2.316-1.828,2.316-1.828l0.73-0.121
		c0,0,1.853,2.07,3.061,1.34c1.207-0.733,3.768-2.195,2.425-3.902c-1.34-1.707,0.379-2.192,0.379-2.192s1.57-0.61,1.206-1.462
		c-0.365-0.854-0.854-1.953-0.854-1.953l0.909-1.219c0,0,0.477,0.609,0.821,0c0.279-0.495,0.653-1.392-0.003-1.712
		c0,0,0.001-0.074,0.001-0.166c-0.146,0.006-0.324-0.014-0.486-0.021L53.783,64.545z"/>
	<path fill="#FFFFFF" d="M38.811,46.818c-0.269,1.809-0.033,4.224,1.95,4.133c1.983-0.09,2.519-0.746,2.519-0.746h0.448
		c0,0,0.536,7.693,4.381,10.342c1.707,1.548,3.429,2.354,4.827,2.678l-0.379-3.489c-0.059-0.535-1.19-0.256-3.139,0.005
		c-0.933-0.431,0.372-0.866,0.372-0.866s1.52-1.094,4.72-0.414c2.843,0.607,1.867,1.341,1.385,1.17
		c-0.823-0.458-1.854-0.383-1.854-0.383l0.361,4.152c0.535-0.017,0.958-0.123,1.216-0.307c0.983-0.7,2.593-4.513,2.77-7.567
		c0.18-3.056,0.449-4.845,0.449-4.845s2.504,0.45,3.305-1.607c0.806-2.058-0.949-4.23-1.949-4.395
		c-0.863-0.142-2.179-0.04-2.52-0.008c-1.469,1.451-3.339,1.045-3.339,1.045s-1.85,1.462-3.801-0.976
		c-1.463,2.194-5.121,2.316-5.974,0.123c-0.598,0.042-1.266,0.033-1.877-0.104l-0.803,0.088
		C41.877,44.847,39.079,45.009,38.811,46.818z M59.313,46.392l1.296-0.212l0.837,0.704l-0.035,1.159l-1.202,1.016l-1.492,0.601
		l-0.356-1.448l-0.337-0.861L59.313,46.392z M54.19,48.828c0.842-0.514,1.895,0.462,2.243,1.034
		c0.348,0.572-0.312,2.039-1.082,2.016c-0.768-0.024-1.809-0.818-1.809-0.818C53.184,50.113,53.35,49.342,54.19,48.828z
		 M47.035,49.038c0.358-0.917,1.789-0.779,2.412-0.536s0.985,1.811,0.361,2.258c-0.627,0.447-1.936,0.447-1.936,0.447
		C47.011,50.67,46.677,49.956,47.035,49.038z M43.021,47.284l-0.215,1.208l0.058,0.866l-2.197-0.208l-0.872-0.691l-0.184-0.985
		l0.762-0.762l1.338-0.203L43.021,47.284z"/>
	<path fill="#FFFFFF" d="M48.337,37.792c-0.854-0.122-2.438,0.609-2.438,1.828c0,1.22,0,1.22,0,1.22s-3.167-0.709-3.413,0.376
		c-0.244,1.086,0.365,1.695,0.974,1.695c0.611,0,1.831,0,1.831,0s0.608,2.316,2.072,2.073c1.463-0.245,3.02-1.83,3.02-1.83
		s1.368,1.708,2.465,1.585c1.098-0.12,1.722-0.852,2.08-1.218c0.847,0.367,3.283-0.239,3.651-2.129
		c0.365-1.893-0.734-2.38-1.464-1.772c-0.733,0.61-2.188,0.489-2.188,0.489s0.982-2.221,0-2.329c-0.982-0.11-2.619,0.134-4.545,1.84
		C50.382,39.62,49.192,37.914,48.337,37.792z"/>
	<path fill="#FFFFFF" d="M17.562,79.812c0.302,0.104,1.89,0.357,1.89,0.357s0.596-1.357,0.675-2.243
		c0.081-0.88-1.766-2.566-2.837-1.949l-0.785,3.161C16.505,79.138,17.255,79.698,17.562,79.812z"/>
	<path fill="#FCBA31" d="M97.265,33.565c-0.354-2.716-5.077-2.363-5.552-2.48c-0.469-0.118-2.952,0.118-2.952,0.118
		s-4.841-0.235-6.258-0.471c-1.416-0.237-4.488,0.471-4.488,0.471s-11.454,0.474-13.109,0.237c-1.651-0.235-8.146-0.827-9.795-0.945
		c-1.646-0.118-7.564,0.708-7.564,0.708H32.548c0,0-12.519,0.946-16.416,1.065c-3.898,0.118-3.069,7.794-3.069,7.794
		s0.117,17.242,0.043,19.84c-0.072,2.598-0.118,12.28-0.118,12.28s0.428,11.693,0.118,14.765s-0.043,4.251,2.907,4.251l5.434,0.119
		c0,0,8.974-0.119,10.865-0.119s6.023,0.826,6.023,0.826s16.652-1.061,18.542-1.061c1.889,0,6.022-0.238,6.022-0.238
		s20.665-0.591,24.563-0.591c3.896,0,5.669-1.064,7.32-2.478c1.654-1.42,0.948-7.443,0.948-10.866c0-3.427,1.416-9.095,1.416-9.095
		s0.473-6.377,0.825-14.643C98.331,44.785,97.621,36.28,97.265,33.565z M94.859,59.416c-1.759,3.609-2.149,5.561-2.732,6.488
		c-0.585,0.925-3.898,6.677-8.581,8.141c-4.683,1.462-12.203,1.66-15.512,0.589c-3.312-1.072-7.394-3.898-9.88-6.194
		c-0.631-0.915-1.876-2.181-2.603-2.895c-0.054,1.053-0.196,2.604-0.568,3.51c-0.601,1.462-1.835,3.045-1.835,3.045
		s1.096,1.1,0,3.899c-0.104,0.267-0.258,0.484-0.412,0.701l0.038-0.007c0,0,0.173,4.901,0.094,5.229
		c-0.08,0.334-0.908,0.636-0.908,0.636s-1.259,0.565-2.464,0.354c-1.206-0.207-0.927-1.768-0.927-1.768v-2.377
		c0-0.004,0.004-0.008,0.004-0.01c-0.745,0.086-1.373,0.086-1.643,0.046c-0.854-0.121-1.34-1.097-1.34-1.097
		s-1.097,1.219-2.074,1.583c0,0-0.363,3.909-0.363,4.792c0,0.885-0.678,1.446-0.678,1.446s-1.33,0.803-2.696,0.803
		c-1.366,0-1.502-0.803-1.502-0.803v-5.941l0.002-0.003c-1.008,0.674-2.209,1.409-3.041,1.534c-1.576,0.248-3.666-1.337-4.033-2.192
		c0,0,0.142,1.784,0.142,3.15c0,1.364-0.804,1.606-0.804,1.606s-1.768,0-2.972,0c-1.203,0-1.204-1.445-1.204-1.445v-3.575
		c-0.098,0.011-0.161,0.021-0.161,0.021l-4.997-0.611l-0.064-0.065l-0.882,2.704c0,0-0.561,1.848-0.802,2.249
		c-0.242,0.402-2.087,0.164-3.346-0.562c-1.259-0.723-0.427-2.167-0.427-2.167l0.854-6.627c0,0,0.001,0,0.001-0.002
		c-0.877-0.48-2.416-1.476-3.015-2.842c-0.854-1.95,1.707-4.997,1.707-4.997s-1.097-2.317-0.974-4.316
		c0.122-1.999,3.046-2.754,3.046-2.754s0,0-0.486-1.108c-0.489-1.719,0.853-4.377,2.804-6.473c1.95-2.098,4.874-1.072,6.946,0.023
		c0.977-1.705,3.292-2.072,5.243-1.243c0.522-3.159,4.318-3.826,5.388-3.952c0.858-2.469,3.92-1.805,3.92-1.805l0.279-0.015
		c-0.412-0.43-0.653-1.06-0.567-2.005c0.243-2.682,1.34-2.803,3.291-3.292c0,0,1.221-2.68,3.535-2.681
		c2.316,0,3.778,1.342,3.778,1.342s1.1-1.219,2.197-1.342c1.096-0.121,2.803-0.487,3.412,1.707c1.288,0,4.806,0.91,1.842,5.302
		l0.262-0.015c0,0,3.494,0.631,4.3,2.893c0.803,2.261-0.27,5.605-3.936,5.605c0.032,9.086-3.038,12.318-3.038,12.318
		s-0.266,0.279-0.893,0.479c0,0.002,0,0.002,0,0.002s2.727,2.957,4.129-0.492c1.402-3.447,6.863-21.098,14.566-24.217
		c7.704-3.122,14.142-1.658,15.605-1.074c1.463,0.585,6.043,2.729,6.533,8.971C96.906,53.858,96.615,55.809,94.859,59.416z"/>
	<path fill="#74CBC8" d="M51.86,23c0,0-7.559,0.944-9.211,0.828c-1.653-0.119-11.338-0.237-11.338-0.237s-9.802,0.118-15.47,0.118
		s-9.332,1.063-9.685,8.739S5.565,52.524,5.565,52.524v28.342c0,0,0.117,4.491-0.473,6.499c-0.236,3.779-0.944,8.856-0.236,11.101
		c0,0,1.772,3.19,6.494,3.542c4.726,0.354,19.251,0,19.251,0s5.55-0.947,6.495-0.59c0.945,0.352,0.945,0.787,2.952,0.747
		c2.008-0.038,15.352,0.002,15.352,0.002s3.933-0.395,5.036-0.868c1.106-0.473,4.297-0.473,5.829,0c1.774,0.357,25.863,0,25.863,0
		l6.734,0.357c0,0,5.551-0.119,6.021-3.071c0.47-2.954,0-17.361,0-17.361s0.185-21.258,0.447-24.33
		c0.261-3.07,0.615-24.208,0.615-24.208s0.236-4.489-0.827-6.496c-1.062-2.009-3.189-1.771-3.189-1.771l-8.856-0.828
		c0,0-0.826-0.591-2.834-0.591s-11.339,0.117-12.638,0.355c-1.297,0.236-8.148,0.708-12.869,0.236C60.009,23.118,51.86,23,51.86,23z
		 M100.987,97.284c-0.944,0.117-2.718,0-2.718,0c-1.061,0.117-1.179-1.18-1.179-1.653c0-0.475,0-2.716,0-2.716
		s0.118-0.947,1.179-0.947h3.071c0,0,0.727-0.471,1.073,0.947c0.344,1.415,0,2.716,0,2.716
		C102.758,96.81,101.932,97.165,100.987,97.284z M101.698,50.872c0.944,0,1.77,0.59,1.887,1.299
		c0.117,0.707-0.236,1.297-0.942,1.534c-0.711,0.236-2.246,0.119-2.128-1.415C100.634,50.751,101.698,50.872,101.698,50.872z
		 M101.698,57.666c0.944,0,1.77,0.591,1.887,1.299c0.117,0.708-0.236,1.297-0.942,1.534c-0.711,0.237-2.246,0.118-2.128-1.417
		C100.634,57.547,101.698,57.666,101.698,57.666z M101.698,63.533c0.944,0,1.77,0.589,1.887,1.299
		c0.117,0.707-0.236,1.299-0.942,1.534c-0.711,0.238-2.246,0.119-2.128-1.417C100.634,63.414,101.698,63.533,101.698,63.533z
		 M71.817,29.135c2.126,0.006,8.861-0.006,10.277,0.119s6.374,0,6.374,0s4.151,0.069,6.093,0.51c1.94,0.44,3.946,1.149,4.065,2.922
		c0.118,1.771,0.943,19.722,1.062,21.612c0.115,1.888-0.711,11.456-1.182,14.289c-0.474,2.835-1.104,5.668-0.85,8.856
		c0.258,3.189,0.356,8.384,0.356,8.384c-0.215,3.31-4.821,5.551-5.885,5.789c-1.063,0.232-7.086-0.357-8.975,0
		c-1.89,0.352-21.345,1.18-22.718,1.061c-1.373-0.117-3.734-0.354-3.734-0.354s-16.061,1.065-17.126,1.182
		c-1.062,0.119-4.488,0-4.488,0s-0.826-0.59-1.652-0.471c-0.826,0.116-2.363,0.522-2.363,0.522s-12.989,0.051-15.351-0.119
		c-2.362-0.168-4.725-0.642-4.134-6.429c-0.472-2.714-0.71-8.623-0.71-8.623s-0.707-17.239-0.823-19.011
		c-0.119-1.771-0.119-4.841,0-7.204c0.116-2.362,0.706-9.684,0.588-11.456c-0.118-1.773-1.063-8.999,3.188-9.814
		c4.252-0.813,6.496-0.47,6.496-0.47s10.392-0.699,11.573-0.699c1.18,0,8.622-0.708,8.622-0.708s6.377-0.118,7.676,0
		c1.3,0.117,10.274-0.237,11.337,0c1.063,0.236,6.14,0.024,6.14,0.024S69.691,29.129,71.817,29.135z"/>
	<path fill="#CF0A2C" d="M101.104,93.486c-0.159-0.658-0.499-0.438-0.499-0.438h-1.422c-0.495,0-0.549,0.438-0.549,0.438
		s0,1.042,0,1.262c0,0.217,0.054,0.819,0.549,0.766c0,0,0.822,0.054,1.26,0c0.438-0.053,0.823-0.22,0.661-0.766
		C101.104,94.748,101.266,94.143,101.104,93.486z"/>
	<path fill="#010101" d="M59.536,29.024c-1.062-0.237-10.037,0.117-11.337,0c-1.299-0.118-7.676,0-7.676,0s-7.442,0.708-8.622,0.708
		c-1.181,0-11.573,0.699-11.573,0.699s-2.244-0.343-6.496,0.47c-4.251,0.815-3.307,8.042-3.188,9.814
		c0.118,1.772-0.472,9.093-0.588,11.456c-0.119,2.363-0.119,5.432,0,7.204c0.116,1.772,0.823,19.011,0.823,19.011
		s0.238,5.909,0.71,8.623c-0.591,5.787,1.772,6.261,4.134,6.429c2.362,0.17,15.351,0.119,15.351,0.119s1.538-0.406,2.363-0.522
		c0.826-0.119,1.652,0.471,1.652,0.471s3.426,0.119,4.488,0c1.065-0.116,17.126-1.182,17.126-1.182s2.361,0.236,3.734,0.354
		c1.373,0.119,20.828-0.709,22.718-1.061c1.889-0.357,7.911,0.232,8.975,0c1.063-0.238,5.67-2.479,5.885-5.789
		c0,0-0.099-5.194-0.356-8.384c-0.254-3.188,0.376-6.021,0.85-8.856c0.471-2.833,1.297-12.401,1.182-14.289
		c-0.119-1.891-0.944-19.841-1.062-21.612c-0.119-1.773-2.125-2.481-4.065-2.922c-1.941-0.44-6.093-0.51-6.093-0.51
		s-4.958,0.125-6.374,0s-8.151-0.113-10.277-0.119s-6.142-0.087-6.142-0.087S60.6,29.26,59.536,29.024z M77.96,31.148
		c0,0,3.068-0.708,4.484-0.47c1.42,0.234,6.262,0.47,6.262,0.47s2.479-0.236,2.952-0.117c0.472,0.117,5.198-0.236,5.551,2.48
		c0.354,2.715,1.063,11.22,0.707,19.487c-0.353,8.266-0.825,14.644-0.825,14.644s-1.417,5.668-1.417,9.093
		c0,3.427,0.707,9.45-0.944,10.865c-1.654,1.418-3.425,2.479-7.322,2.479c-3.896,0-24.564,0.594-24.564,0.594
		s-4.133,0.233-6.023,0.233c-1.889,0-18.54,1.062-18.54,1.062s-4.133-0.823-6.023-0.823s-10.865,0.118-10.865,0.118l-5.434-0.118
		c-2.951,0-3.217-1.182-2.907-4.253c0.311-3.071-0.119-14.762-0.119-14.762s0.047-9.685,0.119-12.283
		c0.074-2.598-0.044-19.84-0.044-19.84s-0.828-7.676,3.07-7.793c3.896-0.118,16.416-1.065,16.416-1.065h14.997
		c0,0,5.918-0.826,7.565-0.708c1.649,0.119,8.141,0.71,9.796,0.945C66.502,31.623,77.96,31.148,77.96,31.148z"/>
	<path fill="#010101" d="M68.053,21.901v-0.001c-0.012,0-0.024,0-0.035-0.001C68.053,21.901,68.053,21.901,68.053,21.901z"/>
	<path fill="#010101" d="M102.643,53.705c0.706-0.237,1.06-0.827,0.942-1.534c-0.117-0.709-0.942-1.299-1.887-1.299
		c0,0-1.064-0.12-1.184,1.418C100.396,53.824,101.932,53.941,102.643,53.705z"/>
	<path fill="#010101" d="M102.643,60.5c0.706-0.237,1.06-0.826,0.942-1.534c-0.117-0.708-0.942-1.299-1.887-1.299
		c0,0-1.064-0.119-1.184,1.416C100.396,60.618,101.932,60.737,102.643,60.5z"/>
	<path fill="#010101" d="M102.643,66.366c0.706-0.235,1.06-0.827,0.942-1.534c-0.117-0.71-0.942-1.299-1.887-1.299
		c0,0-1.064-0.119-1.184,1.416C100.396,66.485,101.932,66.604,102.643,66.366z"/>
	<path fill="#010101" d="M102.414,92.915c-0.347-1.418-1.073-0.947-1.073-0.947H98.27c-1.061,0-1.179,0.947-1.179,0.947
		s0,2.241,0,2.716c0,0.474,0.118,1.771,1.179,1.653c0,0,1.773,0.117,2.718,0c0.944-0.119,1.771-0.475,1.427-1.653
		C102.414,95.631,102.758,94.33,102.414,92.915z M100.442,95.514c-0.438,0.054-1.26,0-1.26,0c-0.495,0.054-0.549-0.549-0.549-0.766
		c0-0.22,0-1.262,0-1.262s0.054-0.438,0.549-0.438h1.422c0,0,0.34-0.22,0.499,0.438c0.162,0.656,0,1.262,0,1.262
		C101.266,95.294,100.88,95.461,100.442,95.514z"/>
	<path fill="#010101" d="M107.65,58.327v-15.32c0,0-0.095-12.431-0.48-16.767c-0.385-4.334-4.434-4.432-6.264-4.432
		c-1.828,0-7.516-0.482-7.516-0.482s-19.078,0.58-21.39,0.675c-0.836,0.034-2.303-0.019-3.948-0.102v0.001c0,0,0,0-0.035-0.002
		c0.011,0,0.023,0.001,0.035,0.001c-0.007-0.007-2.145-2.678-4.449-5.113c2.947-1.788,20.512-13.85,21.272-14.413
		c1.179-0.991-0.004-1.816-1.063-1.108c-0.706,0.47-18.191,12.843-20.944,14.76c-1.443-1.465-2.869-2.722-3.804-3.062
		c-2.6-0.945-8.742,0.353-11.458,2.951c-0.322,0.309-0.633,0.606-0.934,0.896c-3.719-0.597-25.108-2.935-26.065-3.014
		c-1.541-0.037-1.198,1.366,0.068,1.536c0.755,0.099,21.291,2.089,24.95,2.501c-1.66,1.644-2.773,2.927-2.858,3.876h-0.638
		l-18.307,0.389c0,0-10.214-0.289-13.682-0.386c-3.47-0.096-5.686,2.312-5.782,5.589c-0.097,3.275-0.187,5.587-0.187,5.587
		s-0.103,5.589-0.006,6.65c0.096,1.06-0.926,5.01-0.926,5.01s0.156,4.915,0.2,6.456c0.046,1.542-0.527,2.795-0.393,5.01
		C3.18,58.23,3.728,60.64,3.728,60.64v19.15c-0.023,4.087-1.338,5.903-0.883,7.721c0.454,1.816,0,2.044,0,2.044
		s-0.222,0.957-0.581,4.883c-0.675,7.991,6.26,9.312,9,9.522c0.024,0.582,0.039,1.493-0.03,2.537
		c-0.119,1.771,1.18,1.534,1.18,1.534s4.135,0.236,4.841,0c0.514-0.17,0.656-2.568,0.695-3.879l9.726,0.262H53.79
		c0,0,17.811-1.096,35.758-0.743c0.029,0.53,0.065,1.586-0.017,2.826c-0.119,1.771,1.18,1.534,1.18,1.534s4.134,0.236,4.841,0
		c0.562-0.189,0.68-3.033,0.704-4.213c14.985-0.131,10.289-7.707,11.395-11.766c-0.725-2.651-0.771-12.431-0.771-12.431
		s0-16.284-0.095-18.02C107.46,60.255,107.65,58.327,107.65,58.327z M47.215,18.01c1.686,0.189,2.883,0.323,2.883,0.323v-0.968
		c0,0-0.767-0.126-1.939-0.315c1.269-1.166,2.837-2.143,4.646-2.314c4.959-0.473,7.236,0.117,7.633,0.708
		c0.133,0.197,0.716,0.652,1.443,1.271c-0.869,0.607-1.443,1.007-1.443,1.007l0.308,0.794c0,0,0.774-0.465,1.89-1.142
		c1.282,1.162,2.734,2.864,3.053,4.4c-2.247-0.125-4.453-0.253-5.636-0.253c-1.83-0.579-6.842-0.385-7.613-0.385
		s-5.684,0.573-5.684,0.573h-2.099C44.656,21.708,45.587,19.824,47.215,18.01z M16.902,105.787
		c-0.353,0.943-1.653,1.062-2.716,0.943c-1.062-0.117-0.944-0.824-0.944-0.824v-1.883l3.786,0.103
		C17.077,104.641,17.086,105.295,16.902,105.787z M95.198,105.787c-0.354,0.943-1.651,1.062-2.714,0.943
		c-1.063-0.117-0.944-0.824-0.944-0.824v-2.188c0.871,0.023,1.743,0.047,2.609,0.077c0.396,0.012,0.766,0.016,1.139,0.021
		C95.364,104.348,95.425,105.187,95.198,105.787z M105.948,32.686c0,0-0.354,21.138-0.615,24.208
		c-0.263,3.072-0.447,24.33-0.447,24.33s0.47,14.407,0,17.361c-0.471,2.952-6.021,3.071-6.021,3.071l-6.734-0.357
		c0,0-24.089,0.357-25.863,0c-1.532-0.473-4.723-0.473-5.829,0c-1.104,0.474-5.036,0.868-5.036,0.868s-13.344-0.04-15.352-0.002
		c-2.007,0.04-2.007-0.396-2.952-0.747c-0.945-0.357-6.495,0.59-6.495,0.59s-14.525,0.354-19.251,0
		c-4.722-0.352-6.494-3.542-6.494-3.542c-0.708-2.244,0-7.321,0.236-11.101c0.589-2.008,0.473-6.499,0.473-6.499V52.524
		c0,0,0.236-12.4,0.589-20.076s4.017-8.739,9.685-8.739s15.47-0.118,15.47-0.118s9.685,0.118,11.338,0.237
		C44.301,23.945,51.86,23,51.86,23s8.149,0.117,12.875,0.591c4.721,0.472,11.572,0,12.869-0.236C78.902,23.118,88.233,23,90.241,23
		s2.834,0.591,2.834,0.591l8.856,0.828c0,0,2.127-0.238,3.189,1.771C106.185,28.196,105.948,32.686,105.948,32.686z"/>
	<path fill="#FFFFFF" d="M30.058,78.459c-0.287-0.253-0.886-0.431-2.095,0c-0.259,0.091-0.53,0.198-0.849,0.353
		c0.041-0.448-1.195,2.789,0.884,2.681c0.642-0.03,1.846-0.398,1.846-0.398h0.481v-2.203C30.326,78.891,30.282,78.657,30.058,78.459
		z"/>
	<path fill="#010101" d="M36.897,47.552C36.958,47.547,37,47.544,37,47.544l0.434-1.689c0,0-0.11,0.008-0.288,0.029
		c-0.049,0.142-0.094,0.289-0.128,0.452C36.931,46.763,36.899,47.165,36.897,47.552z"/>
	<path fill="#010101" d="M53.845,64.54c-0.024-0.003-0.048-0.003-0.073-0.003l0.011,0.008L53.845,64.54z"/>
	<path fill="#010101" d="M47.872,51.208c0,0,1.308,0,1.936-0.447c0.625-0.448,0.262-2.015-0.361-2.258s-2.054-0.381-2.412,0.536
		C46.677,49.956,47.011,50.67,47.872,51.208z"/>
	<path fill="#010101" d="M55.352,51.877c0.77,0.022,1.43-1.444,1.082-2.016c-0.348-0.572-1.401-1.548-2.243-1.034
		c-0.84,0.515-1.006,1.285-0.647,2.232C53.543,51.06,54.583,51.854,55.352,51.877z"/>
	<polygon fill="#010101" points="40.374,46.711 39.612,47.473 39.796,48.458 40.667,49.149 42.864,49.358 42.806,48.492 
		43.021,47.284 41.712,46.508 	"/>
	<polygon fill="#010101" points="58.717,49.659 60.209,49.058 61.411,48.042 61.446,46.883 60.609,46.18 59.313,46.392 
		58.023,47.35 58.36,48.211 	"/>
	<path fill="#010101" d="M39.641,77.784l-1.419,1.747c0.25-0.164,0.481-0.321,0.698-0.471L39.641,77.784z"/>
	<polygon fill="#010101" points="55.529,64.377 55.527,64.374 55.527,64.377 	"/>
	<path fill="#010101" d="M96.36,47.563c-0.487-6.24-5.07-8.385-6.533-8.97c-1.46-0.585-7.897-2.048-15.604,1.074
		c-7.703,3.119-13.161,20.77-14.563,24.217c-1.402,3.449-4.13,0.493-4.13,0.493h-0.002c0-0.003,0-0.003,0-0.003
		c0.628-0.198,0.895-0.479,0.895-0.479s3.069-3.232,3.04-12.319c3.664,0,4.736-3.343,3.931-5.604
		c-0.806-2.262-4.299-2.893-4.299-2.893l-0.258,0.015c2.961-4.393-0.556-5.301-1.846-5.301c-0.609-2.194-2.314-1.829-3.411-1.707
		c-1.096,0.123-2.195,1.342-2.195,1.342s-1.462-1.342-3.778-1.342c-2.315,0.002-3.535,2.682-3.535,2.682
		c-1.952,0.488-3.048,0.61-3.292,3.291c-0.086,0.945,0.156,1.576,0.567,2.005l-0.279,0.016c0,0-3.062-0.664-3.921,1.805
		c0.178-0.021,0.288-0.029,0.288-0.029L37,47.544c0,0-0.043,0.003-0.104,0.008c-0.018,2.333,1.348,3.896,2.147,4.203
		c0.928,0.358,3.879,0,3.879,0s0.462,8.634,6.522,11.519c1.873,0.889,3.27,1.203,4.326,1.264c0.024,0,0.048,0,0.073,0.003
		c0.162,0.007,0.34,0.026,0.486,0.021c0,0.092,0,0.166,0,0.166c0.655,0.32,0.281,1.217,0.002,1.712c-0.344,0.609-0.821,0-0.821,0
		l-0.909,1.219c0,0,0.488,1.099,0.854,1.953c0.364,0.852-1.206,1.462-1.206,1.462s-1.72,0.485-0.379,2.192
		c1.343,1.707-1.218,3.169-2.425,3.902c-1.208,0.73-3.061-1.34-3.061-1.34l-0.73,0.121c0,0-0.976,1.095-2.316,1.828
		c-1.341,0.729-2.579-1.101-2.579-1.101h-1.689v1.222c0,0-0.73,1.099-3.046,2.072c-2.316,0.977-4.51-2.053-4.51-2.053l-1.463-0.75
		c0,0-0.975,0.483-2.316,0.73c-1.342,0.244-1.646-1.746-1.646-1.746l-1.28-0.693c0,0-1.464,0.976-3.414,0.609
		c-1.951-0.367-1.707-3.654-1.707-3.654s-1.463,0.121-3.413-0.61c-1.95-0.73-0.854-3.657-0.12-5c0.729-1.34,2.923-0.974,2.923-0.974
		l-0.73-0.976c0,0-1.341-0.244-2.073-0.61c-0.731-0.364-1.22-1.218-0.488-2.851c0.731-1.635,4.145-1.292,4.145-1.292
		s0,0-0.975-1.097c-0.977-1.097-0.245-3.778,0-5.059c0.244-1.278,3.169-2.742,4.266-2.865c1.098-0.12,2.318,1.708,2.318,1.708
		s0.607-0.245,0.974-0.489c0.366-0.244,1.098,0.489,1.098,0.489s0.489-0.855,1.707-1.951c1.218-1.098,2.805,0.852,2.805,0.852h0.73
		c0,0,0,0,0-1.974c0-1.798,3.425-2.12,4.042-2.163c0.002-0.387,0.034-0.789,0.122-1.216c0.035-0.163,0.079-0.311,0.128-0.452
		c-1.069,0.126-4.866,0.794-5.388,3.952c-1.951-0.829-4.266-0.462-5.242,1.243c-2.071-1.095-4.997-2.122-6.946-0.024
		c-1.952,2.096-3.292,4.755-2.804,6.474c0.486,1.108,0.486,1.108,0.486,1.108s-2.924,0.755-3.045,2.755
		c-0.123,1.999,0.973,4.316,0.973,4.316s-2.559,3.048-1.706,4.997c0.599,1.366,2.137,2.364,3.016,2.845c-0.001,0-0.002,0-0.002,0
		l-0.855,6.625c0,0-0.831,1.448,0.427,2.17c1.259,0.722,3.105,0.962,3.347,0.562c0.242-0.404,0.803-2.249,0.803-2.249l0.881-2.706
		l0.064,0.068l4.997,0.606c0,0,0.063-0.007,0.161-0.019v3.575c0,0,0.002,1.446,1.204,1.446c1.206,0,2.973,0,2.973,0
		s0.803-0.241,0.803-1.607c0-1.364-0.142-3.147-0.142-3.147c0.366,0.852,2.458,2.435,4.033,2.192
		c0.831-0.129,2.032-0.866,3.04-1.536l1.419-1.747l-0.721,1.276c0.566-0.382,1.002-0.677,1.126-0.677
		c0.262,0,1.391,0.614,2.372,0.838v0.313l-0.608,3.566c0,0-0.642,0.528-1.444,0.528c-0.803,0-1.445-0.528-1.445-0.528v-2.684v-1.357
		c-0.217,0.149-0.449,0.307-0.698,0.471l-0.002,0.004v5.94c0,0,0.136,0.804,1.502,0.804c1.367,0,2.696-0.804,2.696-0.804
		s0.678-0.562,0.678-1.445c0-0.883,0.363-4.792,0.363-4.792c0.976-0.363,2.075-1.588,2.075-1.588s0.486,0.977,1.34,1.103
		c0.27,0.037,0.897,0.039,1.642-0.046c0,0-0.004,0.004-0.004,0.009v2.378c0,0-0.278,1.555,0.927,1.767
		c1.205,0.206,2.463-0.357,2.463-0.357s0.829-0.303,0.909-0.632c0.08-0.333-0.094-5.231-0.094-5.231l-0.039,0.01
		c0.154-0.22,0.309-0.438,0.413-0.701c1.097-2.805,0-3.902,0-3.902s1.234-1.584,1.835-3.046c0.372-0.905,0.514-2.456,0.568-3.51
		c0.727,0.715,1.97,1.98,2.605,2.896c2.485,2.296,6.564,5.119,9.875,6.19c3.312,1.072,10.83,0.879,15.512-0.587
		c4.683-1.462,8-7.213,8.582-8.141c0.586-0.927,0.977-2.878,2.731-6.487C96.558,55.755,96.851,53.805,96.36,47.563z M19.452,80.169
		c0,0-1.588-0.253-1.89-0.357c-0.306-0.113-1.057-0.674-1.057-0.674l0.785-3.161c1.071-0.617,2.918,1.069,2.837,1.949
		C20.047,78.812,19.452,80.169,19.452,80.169z M30.326,81.094h-0.481c0,0-1.205,0.368-1.846,0.398
		c-2.079,0.108-0.843-3.129-0.884-2.681c0.318-0.154,0.59-0.262,0.849-0.353c1.209-0.431,1.808-0.253,2.095,0
		c0.225,0.198,0.269,0.432,0.269,0.432V81.094z M49.267,80.791v-2.199l0.02-0.014c0.903-0.183,1.865-0.523,2.638-1.131
		c0.032,0.933,0.089,2.646,0.101,3.255C51.222,80.67,49.267,80.791,49.267,80.791z M42.486,41.217
		c0.245-1.085,3.413-0.376,3.413-0.376s0,0,0-1.22c0-1.218,1.585-1.95,2.438-1.828c0.855,0.122,2.045,1.828,2.045,1.828
		c1.926-1.706,3.562-1.95,4.545-1.84c0.982,0.107,0,2.329,0,2.329s1.454,0.121,2.188-0.489c0.729-0.608,1.829-0.121,1.464,1.772
		c-0.368,1.89-2.805,2.496-3.651,2.129c-0.358,0.367-0.982,1.098-2.08,1.218c-1.097,0.123-2.465-1.585-2.465-1.585
		s-1.557,1.585-3.02,1.83c-1.464,0.243-2.072-2.073-2.072-2.073s-1.22,0-1.831,0C42.851,42.912,42.242,42.303,42.486,41.217z
		 M54.401,63.4l-0.361-4.152c0,0,1.032-0.075,1.854,0.383c0.481,0.171,1.458-0.562-1.385-1.17c-3.2-0.681-4.72,0.414-4.72,0.414
		s-1.305,0.436-0.372,0.866c1.949-0.261,3.08-0.54,3.139-0.005l0.379,3.489c-1.398-0.324-3.121-1.13-4.827-2.678
		c-3.845-2.648-4.381-10.342-4.381-10.342H43.28c0,0-0.536,0.656-2.519,0.746c-1.983,0.091-2.219-2.324-1.95-4.133
		c0.268-1.809,3.067-1.971,3.067-1.971l0.803-0.088c0.611,0.137,1.279,0.146,1.877,0.104c0.853,2.193,4.511,2.071,5.974-0.123
		c1.952,2.438,3.801,0.976,3.801,0.976s1.87,0.406,3.339-1.045c0.341-0.031,1.656-0.133,2.52,0.008c1,0.165,2.755,2.337,1.949,4.395
		c-0.801,2.057-3.305,1.607-3.305,1.607s-0.27,1.789-0.449,4.845c-0.177,3.055-1.787,6.867-2.77,7.567
		C55.359,63.277,54.936,63.384,54.401,63.4z M94.9,56.497c-0.489,1.016-2.926,8.037-3.511,8.915c-0.589,0.879-4.195,6.24-7.803,7.41
		c-3.61,1.169-11.034,2.469-15.611,0.504c-4.576-1.966-10.009-6.763-10.009-6.763s1.248,1.001,3.682-5.145
		c2.433-6.15,3.312-8.198,3.312-8.198s4.39-9.654,7.169-11.214c2.777-1.56,6.092-3.998,10.873-3.51
		c4.777,0.487,11.588,0.181,12.286,9.067C95.679,50.978,95.388,55.482,94.9,56.497z"/>
	<g>
		<path fill="#E21D38" d="M69.416,69.312c0,0,1.298-0.974,1.686-2.047c0.392-1.071-0.388-1.854-1.167-2.305
			c-0.782-0.452-2.312,0.55-2.312,0.55l1.044,3.802H69.416z"/>
		<path fill="#E21D38" d="M76.761,64.568c1.756,0.23,3.119-1.791,3.801-2.474c0.685-0.682,0.293-1.268,0-1.74
			c-0.293-0.469-2.729-2.649-3.217-3.41c-0.488-0.762-0.976-0.799-1.505-0.449c-0.53,0.352-1.226,1.033-1.226,1.033
			s-0.707,0.387-1.171,2.906C72.788,63.986,75.006,64.339,76.761,64.568z"/>
		<path fill="#E21D38" d="M69.836,59.878c-0.782-0.71-2.048-0.98-3.021-0.405c-0.977,0.573-1.759,1.353-1.759,1.353l1.562,3.447
			c0,0,0.894,0,2.152-0.846C70.03,62.583,70.616,60.588,69.836,59.878z"/>
		<path fill="#E21D38" d="M83.587,72.821c3.607-1.17,7.214-6.531,7.803-7.41c0.585-0.878,3.021-7.899,3.511-8.915
			c0.487-1.014,0.778-5.519,0.388-8.934c-0.698-8.886-7.509-8.58-12.286-9.067c-4.781-0.488-8.096,1.95-10.873,3.51
			C69.35,43.566,64.96,53.22,64.96,53.22s-0.879,2.048-3.312,8.198c-2.434,6.146-3.682,5.145-3.682,5.145s5.433,4.797,10.009,6.763
			C72.553,75.29,79.977,73.99,83.587,72.821z M80.937,53.124c0,0,1.755,1.56,3.315,2.887c1.56,1.325,1.365,0.485,1.365,0.485
			s0-2.009-0.388-3.471c-0.391-1.268,0.289-1.853,1.46-1.148c0.293,0.217,0.585-0.119,2.342,1.848
			c1.755,1.969,1.269-1.224,1.269-1.224s0.388-3.962,0.388-5.984c0-2.021,1.463,0.295,1.463,0.295s-0.487,4.654-0.681,7.776
			c-0.197,3.122-1.368,1.727-1.368,1.727s-1.265-0.655-2.241-1.628c-0.977-0.975-0.878,0.65-0.878,0.65s0.098,0.419,0.392,2.58
			c0.291,2.16-1.562,1.166-1.562,1.166l-7.703-5.764C77.522,51.661,80.937,53.124,80.937,53.124z M72.224,59.57
			c0.147-4.302,2.782-4.234,2.782-4.234s1.17-1.92,3.316,0.39c2.239,2.859,5.556,6.077,5.556,6.077s0.879,0.838,0.682,1.297
			c-0.194,0.457-1.657,0.686-1.949,0.035c-0.293-0.65-0.974-1.332-0.974-0.747c0,0.583-1.072,2.535-3.511,3.217
			C75.687,66.29,71.786,67.578,72.224,59.57z M67.104,69.409c0-0.485-3.458-9.094-3.458-9.094c1.416-1.586,2.777-2.317,4.728-2.396
			c1.95-0.081,3.022,2.127,3.022,3.473c0,1.344-1.072,2.653-1.072,2.653s0.585,0.196,1.367,0.523
			c1.853,2.083,0.193,4.062-0.684,4.938c-0.881,0.877-2.34,1.267-3.031,1.072C67.289,70.386,67.104,69.897,67.104,69.409z"/>
	</g>
	<path fill="#010101" d="M71.007,69.507c0.877-0.876,2.536-2.855,0.684-4.938c-0.782-0.327-1.367-0.523-1.367-0.523
		s1.072-1.309,1.072-2.653c0-1.345-1.072-3.554-3.022-3.473c-1.95,0.079-3.312,0.81-4.728,2.396c0,0,3.458,8.608,3.458,9.094
		c0,0.488,0.186,0.977,0.872,1.17C68.667,70.773,70.126,70.384,71.007,69.507z M66.618,64.273l-1.562-3.447
		c0,0,0.782-0.78,1.759-1.353c0.974-0.576,2.239-0.305,3.021,0.405c0.78,0.71,0.194,2.705-1.065,3.549
		C67.512,64.273,66.618,64.273,66.618,64.273z M69.935,64.96c0.779,0.451,1.559,1.233,1.167,2.305
		c-0.388,1.073-1.686,2.047-1.686,2.047h-0.749l-1.044-3.802C67.623,65.51,69.152,64.508,69.935,64.96z"/>
	<path fill="#010101" d="M78.126,65.605c2.438-0.683,3.511-2.634,3.511-3.217c0-0.585,0.681,0.097,0.974,0.747
		c0.292,0.65,1.755,0.422,1.949-0.035c0.197-0.459-0.682-1.297-0.682-1.297s-3.316-3.218-5.556-6.077
		c-2.146-2.311-3.316-0.39-3.316-0.39s-2.635-0.068-2.782,4.234C71.786,67.578,75.687,66.29,78.126,65.605z M73.443,60.436
		c0.464-2.52,1.171-2.906,1.171-2.906s0.695-0.681,1.226-1.033c0.529-0.351,1.017-0.313,1.505,0.449
		c0.487,0.761,2.924,2.94,3.217,3.41c0.293,0.472,0.685,1.058,0,1.74c-0.682,0.683-2.045,2.704-3.801,2.474
		C75.006,64.339,72.788,63.986,73.443,60.436z"/>
	<path fill="#010101" d="M85.812,59.082c0,0,1.854,0.994,1.562-1.166c-0.294-2.161-0.392-2.58-0.392-2.58s-0.099-1.625,0.878-0.65
		c0.977,0.973,2.241,1.628,2.241,1.628s1.171,1.395,1.368-1.727c0.193-3.122,0.681-7.776,0.681-7.776s-1.463-2.315-1.463-0.295
		c0,2.022-0.388,5.984-0.388,5.984s0.486,3.193-1.269,1.224c-1.757-1.967-2.049-1.631-2.342-1.848
		c-1.171-0.705-1.851-0.119-1.46,1.148c0.388,1.462,0.388,3.471,0.388,3.471s0.194,0.84-1.365-0.485
		c-1.561-1.327-3.315-2.887-3.315-2.887s-3.414-1.463-2.828,0.194L85.812,59.082z"/>
</g>
</svg>
