<?xml version="1.0" encoding="utf-8"?>
<!-- Generator: Adobe Illustrator 16.0.0, SVG Export Plug-In . SVG Version: 6.00 Build 0)  -->
<!DOCTYPE svg PUBLIC "-//W3C//DTD SVG 1.1//EN" "http://www.w3.org/Graphics/SVG/1.1/DTD/svg11.dtd">
<svg version="1.1" xmlns="http://www.w3.org/2000/svg" xmlns:xlink="http://www.w3.org/1999/xlink" x="0px" y="0px" width="64px"
	 height="64px" viewBox="0 0 64 64" enable-background="new 0 0 64 64" xml:space="preserve">
<g id="Layer_1" display="none">
	<path display="inline" fill="#FFFFFF" d="M31.998,0.416c-17.538,0-31.76,14.22-31.76,31.763c0,14.035,9.1,25.939,21.723,30.14
		c1.588,0.289,2.168-0.689,2.168-1.531c0-0.754-0.028-2.754-0.043-5.404c-8.835,1.92-10.7-4.258-10.7-4.258
		c-1.444-3.668-3.526-4.646-3.526-4.646c-2.884-1.969,0.218-1.93,0.218-1.93c3.188,0.225,4.865,3.275,4.865,3.275
		c2.833,4.852,7.434,3.449,9.244,2.639c0.288-2.053,1.109-3.455,2.016-4.246c-7.053-0.805-14.468-3.527-14.468-15.7
		c0-3.467,1.238-6.303,3.27-8.523c-0.327-0.804-1.417-4.033,0.312-8.406c0,0,2.667-0.854,8.734,3.256
		c2.533-0.705,5.25-1.057,7.952-1.069c2.698,0.012,5.413,0.364,7.952,1.069c6.064-4.11,8.727-3.256,8.727-3.256
		c1.732,4.373,0.642,7.602,0.315,8.406c2.034,2.22,3.264,5.056,3.264,8.523c0,12.204-7.426,14.887-14.502,15.672
		c1.141,0.982,2.156,2.922,2.156,5.885c0,4.246-0.038,7.67-0.038,8.713c0,0.85,0.571,1.836,2.184,1.527
		c12.611-4.209,21.702-16.105,21.702-30.136C63.762,14.636,49.541,0.416,31.998,0.416z"/>
</g>
<g id="Layer_2">
	<path fill="#FFFFFF" d="M63.32,12.615c-2.303,1.021-4.775,1.711-7.373,2.021c2.651-1.588,4.687-4.104,5.644-7.101
		c-2.479,1.471-5.226,2.539-8.15,3.115c-2.341-2.495-5.678-4.054-9.368-4.054c-7.09,0-12.837,5.747-12.837,12.835
		c0,1.006,0.113,1.986,0.333,2.925C20.9,21.822,11.442,16.711,5.111,8.945c-1.105,1.896-1.738,4.101-1.738,6.454
		c0,4.453,2.266,8.382,5.71,10.684C6.979,26.016,5,25.438,3.27,24.477c-0.001,0.054-0.001,0.107-0.001,0.161
		c0,6.219,4.425,11.407,10.296,12.586c-1.077,0.294-2.211,0.45-3.382,0.45c-0.827,0-1.631-0.08-2.415-0.229
		c1.633,5.099,6.374,8.81,11.99,8.914c-4.393,3.441-9.927,5.494-15.941,5.494c-1.037,0-2.058-0.062-3.062-0.179
		c5.681,3.641,12.427,5.767,19.676,5.767c23.609,0,36.521-19.56,36.521-36.521c0-0.557-0.013-1.11-0.038-1.661
		C59.423,17.45,61.6,15.189,63.32,12.615z"/>
</g>
</svg>
